<?xml version="1.0" encoding="utf-8"?>
<!-- Generator: Adobe Illustrator 27.5.0, SVG Export Plug-In . SVG Version: 6.00 Build 0)  -->
<svg version="1.1" xmlns="http://www.w3.org/2000/svg" xmlns:xlink="http://www.w3.org/1999/xlink" x="0px" y="0px"
	 viewBox="0 0 2500 2500" style="enable-background:new 0 0 2500 2500;" xml:space="preserve">
<g id="Background">
	<rect style="fill:#FFFFFF;" width="2500" height="2500"/>
</g>
<g id="Illustration">
	<g id="Consumer_society_1_">
		<circle style="fill:#F2E6DC;" cx="1250.992" cy="1250" r="915"/>
		<g>
			<g>
				<path style="fill:#FFFFFF;" d="M572.067,1198.335H427.285V898.792l150.283-1.712L572.067,1198.335z M431.695,1193.925h136.044
					l5.338-292.383l-141.382,1.611V1193.925z"/>
				<g>
					
						<rect x="520.637" y="921.009" transform="matrix(-1 -1.224647e-16 1.224647e-16 -1 1072.4131 1856.7021)" style="fill:#FFFFFF;" width="31.138" height="14.684"/>
					
						<rect x="466.719" y="921.009" transform="matrix(-1 -1.224647e-16 1.224647e-16 -1 964.5755 1856.7021)" style="fill:#FFFFFF;" width="31.138" height="14.684"/>
					
						<rect x="520.637" y="956.16" transform="matrix(-1 -1.224647e-16 1.224647e-16 -1 1072.4131 1927.0048)" style="fill:#FFFFFF;" width="31.138" height="14.684"/>
					
						<rect x="466.719" y="956.16" transform="matrix(-1 -1.224647e-16 1.224647e-16 -1 964.5755 1927.0048)" style="fill:#FFFFFF;" width="31.138" height="14.684"/>
					
						<rect x="520.637" y="991.311" transform="matrix(-1 -1.224647e-16 1.224647e-16 -1 1072.4131 1997.3074)" style="fill:#FFFFFF;" width="31.138" height="14.684"/>
					
						<rect x="466.719" y="991.311" transform="matrix(-1 -1.224647e-16 1.224647e-16 -1 964.5755 1997.3074)" style="fill:#FFFFFF;" width="31.138" height="14.684"/>
					
						<rect x="520.637" y="1026.463" transform="matrix(-1 -1.224647e-16 1.224647e-16 -1 1072.4131 2067.6101)" style="fill:#FFFFFF;" width="31.138" height="14.684"/>
					
						<rect x="466.719" y="1026.463" transform="matrix(-1 -1.224647e-16 1.224647e-16 -1 964.5755 2067.6101)" style="fill:#FFFFFF;" width="31.138" height="14.684"/>
					
						<rect x="520.637" y="1061.614" transform="matrix(-1 -1.224647e-16 1.224647e-16 -1 1072.4131 2137.9128)" style="fill:#FFFFFF;" width="31.138" height="14.684"/>
					
						<rect x="466.719" y="1061.614" transform="matrix(-1 -1.224647e-16 1.224647e-16 -1 964.5755 2137.9128)" style="fill:#FFFFFF;" width="31.138" height="14.684"/>
				</g>
			</g>
			<g>
				
					<rect x="556.578" y="870.252" transform="matrix(-1 -1.224647e-16 1.224647e-16 -1 1386.0271 2229.1753)" style="fill:#E6D0BE;" width="272.871" height="488.672"/>
				<g>
					<g>
						
							<rect x="776.214" y="909.235" transform="matrix(-1 -1.224647e-16 1.224647e-16 -1 1574.0938 1852.4033)" style="fill:#F2E6DC;" width="21.666" height="33.933"/>
						
							<rect x="714.154" y="909.235" transform="matrix(-1 -1.224647e-16 1.224647e-16 -1 1449.9741 1852.4033)" style="fill:#F2E6DC;" width="21.667" height="33.933"/>
						
							<rect x="652.094" y="909.235" transform="matrix(-1 -1.224647e-16 1.224647e-16 -1 1325.8545 1852.4033)" style="fill:#F2E6DC;" width="21.667" height="33.933"/>
						
							<rect x="590.034" y="909.235" transform="matrix(-1 -1.224647e-16 1.224647e-16 -1 1201.7349 1852.4033)" style="fill:#F2E6DC;" width="21.667" height="33.933"/>
					</g>
					<g>
						
							<rect x="776.214" y="986.853" transform="matrix(-1 -1.224647e-16 1.224647e-16 -1 1574.0938 2007.6388)" style="fill:#F2E6DC;" width="21.666" height="33.933"/>
						
							<rect x="714.154" y="986.853" transform="matrix(-1 -1.224647e-16 1.224647e-16 -1 1449.9741 2007.6388)" style="fill:#F2E6DC;" width="21.667" height="33.933"/>
						
							<rect x="652.094" y="986.853" transform="matrix(-1 -1.224647e-16 1.224647e-16 -1 1325.8545 2007.6388)" style="fill:#F2E6DC;" width="21.667" height="33.933"/>
						
							<rect x="590.034" y="986.853" transform="matrix(-1 -1.224647e-16 1.224647e-16 -1 1201.7349 2007.6388)" style="fill:#F2E6DC;" width="21.667" height="33.933"/>
					</g>
					<g>
						
							<rect x="776.214" y="1064.471" transform="matrix(-1 -1.224647e-16 1.224647e-16 -1 1574.0938 2162.8743)" style="fill:#F2E6DC;" width="21.666" height="33.933"/>
						
							<rect x="714.154" y="1064.471" transform="matrix(-1 -1.224647e-16 1.224647e-16 -1 1449.9741 2162.8743)" style="fill:#F2E6DC;" width="21.667" height="33.933"/>
						
							<rect x="652.094" y="1064.471" transform="matrix(-1 -1.224647e-16 1.224647e-16 -1 1325.8545 2162.8743)" style="fill:#F2E6DC;" width="21.667" height="33.933"/>
						
							<rect x="590.034" y="1064.471" transform="matrix(-1 -1.224647e-16 1.224647e-16 -1 1201.7349 2162.8743)" style="fill:#F2E6DC;" width="21.667" height="33.933"/>
					</g>
					<g>
						
							<rect x="776.214" y="1142.089" transform="matrix(-1 -1.224647e-16 1.224647e-16 -1 1574.0938 2318.1099)" style="fill:#F2E6DC;" width="21.666" height="33.933"/>
						
							<rect x="714.154" y="1142.089" transform="matrix(-1 -1.224647e-16 1.224647e-16 -1 1449.9741 2318.1099)" style="fill:#F2E6DC;" width="21.667" height="33.933"/>
						
							<rect x="652.094" y="1142.089" transform="matrix(-1 -1.224647e-16 1.224647e-16 -1 1325.8545 2318.1099)" style="fill:#F2E6DC;" width="21.667" height="33.933"/>
						
							<rect x="590.034" y="1142.089" transform="matrix(-1 -1.224647e-16 1.224647e-16 -1 1201.7349 2318.1099)" style="fill:#F2E6DC;" width="21.667" height="33.933"/>
					</g>
					<g>
						
							<rect x="776.214" y="1219.706" transform="matrix(-1 -1.224647e-16 1.224647e-16 -1 1574.0938 2473.3452)" style="fill:#F2E6DC;" width="21.666" height="33.933"/>
						
							<rect x="714.154" y="1219.706" transform="matrix(-1 -1.224647e-16 1.224647e-16 -1 1449.9741 2473.3452)" style="fill:#F2E6DC;" width="21.667" height="33.933"/>
						
							<rect x="652.094" y="1219.706" transform="matrix(-1 -1.224647e-16 1.224647e-16 -1 1325.8545 2473.3452)" style="fill:#F2E6DC;" width="21.667" height="33.933"/>
						
							<rect x="590.034" y="1219.706" transform="matrix(-1 -1.224647e-16 1.224647e-16 -1 1201.7349 2473.3452)" style="fill:#F2E6DC;" width="21.667" height="33.933"/>
					</g>
				</g>
			</g>
			<g>
				
					<rect x="334.008" y="1020.875" transform="matrix(-1 -1.224647e-16 1.224647e-16 -1 882.4191 2377.533)" style="fill:#F7F1EB;" width="214.402" height="335.783"/>
				<g>
					
						<rect x="506.582" y="1051.505" transform="matrix(-1 -1.224647e-16 1.224647e-16 -1 1030.1884 2129.6726)" style="fill:#E6D0BE;" width="17.024" height="26.662"/>
					
						<rect x="457.82" y="1051.505" transform="matrix(-1 -1.224647e-16 1.224647e-16 -1 932.6641 2129.6726)" style="fill:#E6D0BE;" width="17.024" height="26.662"/>
					
						<rect x="409.058" y="1051.505" transform="matrix(-1 -1.224647e-16 1.224647e-16 -1 835.1399 2129.6726)" style="fill:#E6D0BE;" width="17.024" height="26.662"/>
					
						<rect x="360.296" y="1051.505" transform="matrix(-1 -1.224647e-16 1.224647e-16 -1 737.6156 2129.6726)" style="fill:#E6D0BE;" width="17.024" height="26.662"/>
					
						<rect x="506.582" y="1112.492" transform="matrix(-1 -1.224647e-16 1.224647e-16 -1 1030.1884 2251.6455)" style="fill:#E6D0BE;" width="17.024" height="26.662"/>
					
						<rect x="457.82" y="1112.492" transform="matrix(-1 -1.224647e-16 1.224647e-16 -1 932.6641 2251.6455)" style="fill:#E6D0BE;" width="17.024" height="26.662"/>
					
						<rect x="409.058" y="1112.492" transform="matrix(-1 -1.224647e-16 1.224647e-16 -1 835.1399 2251.6455)" style="fill:#E6D0BE;" width="17.024" height="26.662"/>
					
						<rect x="360.296" y="1112.492" transform="matrix(-1 -1.224647e-16 1.224647e-16 -1 737.6156 2251.6455)" style="fill:#E6D0BE;" width="17.024" height="26.662"/>
					
						<rect x="506.582" y="1173.478" transform="matrix(-1 -1.224647e-16 1.224647e-16 -1 1030.1884 2373.6182)" style="fill:#E6D0BE;" width="17.024" height="26.662"/>
					
						<rect x="457.82" y="1173.478" transform="matrix(-1 -1.224647e-16 1.224647e-16 -1 932.6641 2373.6182)" style="fill:#E6D0BE;" width="17.024" height="26.662"/>
					
						<rect x="409.058" y="1173.478" transform="matrix(-1 -1.224647e-16 1.224647e-16 -1 835.1399 2373.6182)" style="fill:#E6D0BE;" width="17.024" height="26.662"/>
					
						<rect x="360.296" y="1173.478" transform="matrix(-1 -1.224647e-16 1.224647e-16 -1 737.6156 2373.6182)" style="fill:#E6D0BE;" width="17.024" height="26.662"/>
					
						<rect x="506.582" y="1234.465" transform="matrix(-1 -1.224647e-16 1.224647e-16 -1 1030.1884 2495.5911)" style="fill:#E6D0BE;" width="17.024" height="26.662"/>
					
						<rect x="457.82" y="1234.465" transform="matrix(-1 -1.224647e-16 1.224647e-16 -1 932.6641 2495.5911)" style="fill:#E6D0BE;" width="17.024" height="26.662"/>
					
						<rect x="409.058" y="1234.465" transform="matrix(-1 -1.224647e-16 1.224647e-16 -1 835.1399 2495.5911)" style="fill:#E6D0BE;" width="17.024" height="26.662"/>
					
						<rect x="360.296" y="1234.465" transform="matrix(-1 -1.224647e-16 1.224647e-16 -1 737.6156 2495.5911)" style="fill:#E6D0BE;" width="17.024" height="26.662"/>
					
						<rect x="506.582" y="1295.451" transform="matrix(-1 -1.224647e-16 1.224647e-16 -1 1030.1884 2617.5637)" style="fill:#E6D0BE;" width="17.024" height="26.662"/>
					
						<rect x="457.82" y="1295.451" transform="matrix(-1 -1.224647e-16 1.224647e-16 -1 932.6641 2617.5637)" style="fill:#E6D0BE;" width="17.024" height="26.662"/>
					
						<rect x="409.058" y="1295.451" transform="matrix(-1 -1.224647e-16 1.224647e-16 -1 835.1399 2617.5637)" style="fill:#E6D0BE;" width="17.024" height="26.662"/>
					
						<rect x="360.296" y="1295.451" transform="matrix(-1 -1.224647e-16 1.224647e-16 -1 737.6156 2617.5637)" style="fill:#E6D0BE;" width="17.024" height="26.662"/>
				</g>
			</g>
		</g>
		<g>
			<g>
				<polygon style="fill:#E6D0BE;" points="843.856,1162.652 2036.948,1157.048 2081.106,1138.657 2081.912,609.51 843.856,609.51 
									"/>
				
					<rect x="843.117" y="1126.173" transform="matrix(-1 -1.224647e-16 1.224647e-16 -1 2925.0286 2492.4165)" style="fill:#D3BBA3;" width="1238.796" height="240.07"/>
				<g>
					<g>
						<g>
							<path style="fill:#D87355;" d="M1241.367,637.004h-44.72c-10.835,0-19.619-8.784-19.619-19.619V435.649h83.958v181.736
								C1260.986,628.22,1252.202,637.004,1241.367,637.004z"/>
							<path style="fill:#FFFFFF;" d="M1324.201,637.004h-44.72c-10.835,0-19.619-8.784-19.619-19.619V435.649h83.958v181.736
								C1343.82,628.22,1335.036,637.004,1324.201,637.004z"/>
							<path style="fill:#FFFFFF;" d="M1156.507,637.004h-44.72c-10.835,0-19.619-8.784-19.619-19.619V435.649h83.958v181.736
								C1176.125,628.22,1167.342,637.004,1156.507,637.004z"/>
							<path style="fill:#D87355;" d="M1407.034,637.004h-44.72c-10.835,0-19.619-8.784-19.619-19.619V435.649h83.958v181.736
								C1426.653,628.22,1417.87,637.004,1407.034,637.004z"/>
							<path style="fill:#FFFFFF;" d="M1489.868,637.004h-44.72c-10.835,0-19.619-8.784-19.619-19.619V435.649h83.958v181.736
								C1509.487,628.22,1500.703,637.004,1489.868,637.004z"/>
							<path style="fill:#D87355;" d="M1572.701,637.004h-44.72c-10.835,0-19.619-8.784-19.619-19.619V435.649h83.958v181.736
								C1592.32,628.22,1583.537,637.004,1572.701,637.004z"/>
							<path style="fill:#D87355;" d="M907.417,634.41h-44.72c-10.835,0-19.619-8.784-19.619-19.619V433.055h83.958v181.736
								C927.036,625.626,918.253,634.41,907.417,634.41z"/>
							<path style="fill:#FFFFFF;" d="M990.251,634.41h-44.72c-10.835,0-19.619-8.784-19.619-19.619V433.055h83.958v181.736
								C1009.87,625.626,1001.086,634.41,990.251,634.41z"/>
							<path style="fill:#D87355;" d="M1073.084,634.41h-44.72c-10.835,0-19.619-8.784-19.619-19.619V433.055h83.958v181.736
								C1092.703,625.626,1083.92,634.41,1073.084,634.41z"/>
							<path style="fill:#FFFFFF;" d="M1655.535,637.004h-44.72c-10.835,0-19.619-8.784-19.619-19.619V435.649h83.958v181.736
								C1675.154,628.22,1666.37,637.004,1655.535,637.004z"/>
							<path style="fill:#D87355;" d="M1738.369,637.004h-44.72c-10.835,0-19.619-8.784-19.619-19.619V435.649h83.958v181.736
								C1757.988,628.22,1749.204,637.004,1738.369,637.004z"/>
							<path style="fill:#FFFFFF;" d="M1821.202,637.004h-44.72c-10.835,0-19.619-8.784-19.619-19.619V435.649h83.958v181.736
								C1840.821,628.22,1832.037,637.004,1821.202,637.004z"/>
							<path style="fill:#D87355;" d="M1904.036,637.004h-44.72c-10.835,0-19.619-8.784-19.619-19.619V435.649h83.958v181.736
								C1923.655,628.22,1914.871,637.004,1904.036,637.004z"/>
							<path style="fill:#FFFFFF;" d="M1986.869,637.004h-44.72c-10.835,0-19.619-8.784-19.619-19.619V435.649h83.958v181.736
								C2006.488,628.22,1997.704,637.004,1986.869,637.004z"/>
							<path style="fill:#D87355;" d="M2069.703,637.004h-44.72c-10.835,0-19.619-8.784-19.619-19.619V435.649h83.958v181.736
								C2089.322,628.22,2080.538,637.004,2069.703,637.004z"/>
							<path style="fill:#D87355;" d="M2089.323,437.855h-0.002l-1245.665-1.206c-1.219-0.001-2.205-0.989-2.203-2.207
								c0.002-1.216,0.988-2.203,2.205-2.203h0.002l1245.665,1.206c1.219,0.001,2.205,0.989,2.203,2.207
								C2091.525,436.869,2090.539,437.855,2089.323,437.855z"/>
						</g>
					</g>
				</g>
				<g>
					<rect x="1427.055" y="693.891" style="fill:#F2E6DC;" width="244.176" height="409.816"/>
					<g style="opacity:0.67;">
						<defs>
							<rect id="SVGID_1_" x="1427.606" y="693.363" style="opacity:0.67;" width="244.452" height="410.344"/>
						</defs>
						<clipPath id="SVGID_00000088122936059117414470000013620042254197917834_">
							<use xlink:href="#SVGID_1_"  style="overflow:visible;"/>
						</clipPath>
						<g style="clip-path:url(#SVGID_00000088122936059117414470000013620042254197917834_);">
							<polygon style="fill:#FFFFFF;" points="1811.657,922.388 1795.647,940.483 1391.009,625.276 1407.019,607.182 							"/>
							<polygon style="fill:#FFFFFF;" points="1736.459,1137.512 1721.544,1154.471 1316.171,840.115 1331.086,823.157 							"/>
							<polygon style="fill:#FFFFFF;" points="1758.314,1024.709 1727.883,1059.119 1323.199,743.965 1353.63,709.556 							"/>
						</g>
					</g>
				</g>
				<g>
					<rect x="882.991" y="694.377" style="fill:#F2E6DC;" width="244.176" height="409.816"/>
					<g style="opacity:0.67;">
						<defs>
							
								<rect id="SVGID_00000175288327121957185170000004826325620609792388_" x="883.542" y="693.849" style="opacity:0.67;" width="244.452" height="410.344"/>
						</defs>
						<clipPath id="SVGID_00000040538457399220134910000011679824943407213201_">
							<use xlink:href="#SVGID_00000175288327121957185170000004826325620609792388_"  style="overflow:visible;"/>
						</clipPath>
						<g style="clip-path:url(#SVGID_00000040538457399220134910000011679824943407213201_);">
							<polygon style="fill:#FFFFFF;" points="1267.594,922.875 1251.584,940.969 846.945,625.763 862.956,607.668 							"/>
							<polygon style="fill:#FFFFFF;" points="1192.395,1137.999 1177.48,1154.958 772.107,840.602 787.023,823.643 							"/>
							<polygon style="fill:#FFFFFF;" points="1214.25,1025.196 1183.819,1059.605 779.136,744.452 809.567,710.042 							"/>
						</g>
					</g>
				</g>
				<g>
					<rect x="1154.185" y="694.376" style="fill:#F2E6DC;" width="244.176" height="409.816"/>
					<g style="opacity:0.67;">
						<defs>
							
								<rect id="SVGID_00000090291007762486214740000017936293062198588828_" x="1154.736" y="693.848" style="opacity:0.67;" width="244.452" height="410.344"/>
						</defs>
						<clipPath id="SVGID_00000172435562825006850120000014438743887022195589_">
							<use xlink:href="#SVGID_00000090291007762486214740000017936293062198588828_"  style="overflow:visible;"/>
						</clipPath>
						<g style="clip-path:url(#SVGID_00000172435562825006850120000014438743887022195589_);">
							<polygon style="fill:#FFFFFF;" points="1538.788,922.873 1522.778,940.968 1118.14,625.762 1134.15,607.667 							"/>
							<polygon style="fill:#FFFFFF;" points="1463.59,1137.998 1448.674,1154.956 1043.302,840.601 1058.217,823.642 							"/>
							<polygon style="fill:#FFFFFF;" points="1485.444,1025.195 1455.013,1059.604 1050.33,744.45 1080.761,710.041 							"/>
						</g>
					</g>
				</g>
				<rect x="1733.233" y="689.574" style="fill:#D3BBA3;" width="277.788" height="549.24"/>
				<g style="opacity:0.69;">
					<defs>
						
							<rect id="SVGID_00000062159958194562012040000011882541252895644838_" x="1753.344" y="708.06" style="opacity:0.69;" width="237.081" height="393.444"/>
					</defs>
					<use xlink:href="#SVGID_00000062159958194562012040000011882541252895644838_"  style="overflow:visible;fill:#F2E6DC;"/>
					<clipPath id="SVGID_00000160898243489307486540000001262538475557344919_">
						<use xlink:href="#SVGID_00000062159958194562012040000011882541252895644838_"  style="overflow:visible;"/>
					</clipPath>
					<g style="clip-path:url(#SVGID_00000160898243489307486540000001262538475557344919_);">
						<polygon style="fill:#FFFFFF;" points="2125.891,943.618 2105.211,966.865 1712.061,665.456 1732.742,642.209 						"/>
						<polygon style="fill:#FFFFFF;" points="2047.731,1153.807 2027.05,1177.054 1633.901,875.645 1654.581,852.398 						"/>
						<polygon style="fill:#FFFFFF;" points="2091.791,985.827 2053.272,1029.125 1660.123,727.716 1698.641,684.418 						"/>
					</g>
				</g>
				<rect x="1856.548" y="703.844" style="fill:#D3BBA3;" width="19.012" height="448.368"/>
				<rect x="1740.888" y="887.631" style="fill:#D3BBA3;" width="263" height="22.181"/>
			</g>
		</g>
		<g>
			<g>
				<g>
					<polygon style="fill:#BC8271;" points="593.461,1658.064 533.592,1657.166 551.43,1580.068 612.441,1590.224 					"/>
					<g>
						<path style="fill:#FFD092;" d="M677.108,1697.758H522.073l14.275-59.193h60.737l43.92,13.381
							C662.531,1657.769,677.306,1676.519,677.108,1697.758L677.108,1697.758z"/>
						<g>
							<path style="fill:#363E44;" d="M606.648,1655.752c-0.564,0-1.13-0.215-1.561-0.647c-0.859-0.861-0.859-2.258,0.002-3.118
								l9.706-9.693c0.861-0.859,2.259-0.861,3.12,0.002c0.859,0.861,0.859,2.258-0.002,3.118l-9.706,9.693
								C607.776,1655.536,607.212,1655.752,606.648,1655.752z"/>
							<path style="fill:#363E44;" d="M617.683,1659.058c-0.564,0-1.128-0.215-1.559-0.647c-0.861-0.861-0.861-2.258,0-3.118
								l9.704-9.693c0.861-0.859,2.257-0.861,3.118,0.002c0.861,0.861,0.861,2.257,0,3.118l-9.704,9.693
								C618.811,1658.843,618.247,1659.058,617.683,1659.058z"/>
						</g>
					</g>
				</g>
				<g>
					<polygon style="fill:#BC8271;" points="872.905,1669.6 813.037,1668.702 814.885,1580.068 875.896,1590.224 					"/>
					<g>
						<path style="fill:#FFD092;" d="M955.354,1697.758H800.319l13.351-59.193h61.661l43.921,13.381
							C940.777,1657.769,955.552,1676.519,955.354,1697.758L955.354,1697.758z"/>
						<g>
							<path style="fill:#363E44;" d="M884.938,1656.734c-0.564,0-1.13-0.215-1.561-0.647c-0.859-0.861-0.859-2.258,0.002-3.118
								l9.706-9.693c0.861-0.859,2.259-0.861,3.12,0.002c0.859,0.861,0.859,2.258-0.002,3.118l-9.706,9.693
								C886.066,1656.518,885.502,1656.734,884.938,1656.734z"/>
							<path style="fill:#363E44;" d="M895.971,1660.04c-0.564,0-1.13-0.215-1.561-0.647c-0.859-0.861-0.859-2.257,0.002-3.118
								l9.706-9.693c0.861-0.859,2.259-0.861,3.12,0.002c0.859,0.861,0.859,2.258-0.002,3.118l-9.706,9.693
								C897.099,1659.824,896.535,1660.04,895.971,1660.04z"/>
						</g>
					</g>
				</g>
				<g>
					<path style="fill:#8B865C;" d="M672.527,1073.195c0,0-36.976,82.171-61.935,181.883
						c-24.959,99.713-69.33,349.918-69.33,349.918h68.406c0,0,134.963-154.185,146.98-365.613l41.598-167.111L672.527,1073.195z"/>
					<path style="fill:#8B865C;" d="M727.991,1270.774c0,0,70.255,101.559,75.801,328.683h78.574c0,0,57.313-127.411,24.959-261.284
						c-32.354-133.874-85.045-277.903-85.045-277.903H738.16L727.991,1270.774z"/>
					<path style="fill:#F2E6DC;" d="M750.517,1297.738c-0.149,0-0.299-0.015-0.45-0.046c-1.193-0.246-1.957-1.413-1.712-2.606
						l14.066-67.866c0.116-0.562,0.448-1.057,0.926-1.379l20.47-13.836c1.008-0.682,2.377-0.414,3.06,0.592
						c0.682,1.009,0.418,2.379-0.592,3.062l-19.727,13.334l-13.883,66.989C752.457,1297.022,751.54,1297.738,750.517,1297.738z"/>
				</g>
			</g>
			<g>
				<path style="fill:#363E44;" d="M806.98,827.334c0,0-6.213,10.666-1.637,19.296c1.8,3.394,4.435,4.887,7.329,6.792
					c3.006,1.978,22.671,14.924,26.661,31.819c0.825,3.496,2.166,9.176-0.385,14.226c-5.445,10.78-24.438,10.406-47.292,10.766
					c-58.487,0.921-65.474,5.443-102.1,0.779c-26.676-3.397-37.853-7.602-43.824-17.137c-4.155-6.635-5.944-15.638-3.607-27.737
					c7.573-39.212,51.974-37.497,68.779-53.215c16.805-15.718,28.641-32.011,57.548-33.277
					c28.907-1.266,61.256,14.211,58.114,39.086c-0.098,0.776-0.426,3.847-2.721,6.285
					C818.722,830.457,808.547,827.769,806.98,827.334z"/>
				<path style="fill:#363E44;" d="M650.607,894.759c-0.392,0-0.79-0.104-1.15-0.325c-15.507-9.504-21.992-22.936-18.261-37.821
					c5.015-20.004,28.264-38.019,50.769-39.339c34.442-2.023,45.433-16.913,45.541-17.064c0.702-0.987,2.078-1.226,3.068-0.528
					c0.993,0.699,1.236,2.063,0.543,3.059c-0.476,0.684-12.092,16.773-48.894,18.934c-20.754,1.219-42.163,17.708-46.751,36.01
					c-2.28,9.098-1.305,22.206,16.289,32.989c1.038,0.636,1.365,1.994,0.728,3.032C652.073,894.385,651.35,894.759,650.607,894.759z
					"/>
			</g>
			<g>
				<path style="fill:#FFFFFF;" d="M625.672,969.639c0,0-18.287,77.925-3.896,171.976h253.67c0,0-37.161-90.066-37.145-135.905
					L625.672,969.639z"/>
				<path style="fill:#BC8271;" d="M602.929,997.494c0,0-7.46,88.374,48.209,97.517c55.669,9.144,46.994-92.759,46.994-92.759
					L602.929,997.494z"/>
				<path style="fill:#FFFFFF;" d="M590.529,1008.379c0,0,68.463,4.321,115.158,26.84c46.695,22.519,183.933,1.22,220.146-33.22
					c0,0-40.64-115.968-170.547-115.784C625.38,886.398,600.767,950.754,590.529,1008.379z"/>
				<g>
					<path style="fill:#BC8271;" d="M922.695,969.639c0,0,42.587,72.927-4.964,94.537c-60.581,27.531-96.91-33.675-96.91-33.675
						L922.695,969.639z"/>
					<g>
						<g>
							<polygon style="fill:#363E44;" points="886.354,1016.877 802.817,1016.877 845.022,908.967 928.559,908.967 							"/>
						</g>
						<path style="fill:#E0AA63;" d="M911.457,924.096c0,3.036-2.461,5.497-5.497,5.497s-5.497-2.461-5.497-5.497
							s2.461-5.497,5.497-5.497S911.457,921.06,911.457,924.096z"/>
					</g>
					<g>
						<path style="fill:#BC8271;" d="M890.66,947.147c0.687-6.719,12.184-7.62,23.338-7.366c8.19,0.187,17.503,1.207,17.503,9.963
							c0,10.18-11.539,10.167-19.048,9.319C901.31,957.806,889.989,953.716,890.66,947.147z"/>
						<path style="fill:#BC8271;" d="M886.966,962.458c0.749-7.093,13.286-8.045,25.449-7.776
							c8.931,0.197,19.087,1.274,19.087,10.519c0,10.747-12.583,10.733-20.771,9.839
							C898.578,973.712,886.234,969.393,886.966,962.458z"/>
						<path style="fill:#BC8271;" d="M886.533,980.843c0.425-7.382,11.451-8.994,22.186-9.324
							c7.883-0.242,16.875,0.365,17.182,9.937c0.356,11.128-10.742,11.742-17.992,11.226
							C897.148,991.914,886.117,988.06,886.533,980.843z"/>
						<path style="fill:#BC8271;" d="M889.295,996.25c0.323-6.114,8.975-7.422,17.402-7.668c6.187-0.181,13.246,0.344,13.5,8.273
							c0.295,9.218-8.415,9.7-14.107,9.254C897.642,1005.446,888.979,1002.227,889.295,996.25z"/>
						<path style="fill:#363E44;" d="M909.639,1006.085c-4.547,0-10.161-0.725-16.68-1.565l-1.184-0.153
							c-1.208-0.155-2.06-1.261-1.905-2.468c0.157-1.207,1.232-2.061,2.47-1.906l1.184,0.153
							c10.505,1.354,20.425,2.637,23.443-0.102c0.471-0.427,1.089-1.215,1.029-3.119c-0.054-1.598-0.424-2.812-1.135-3.714
							l-1.979-2.515l3.055-0.954c4.069-1.27,5.9-3.881,5.762-8.216c-0.075-2.292-0.726-3.992-1.987-5.195l-2.95-2.807l3.964-0.936
							c1.044-0.247,1.977-0.572,2.771-0.967c1.094-0.545,2.414-0.096,2.956,0.994c0.543,1.091,0.097,2.414-0.993,2.955
							c-0.215,0.107-0.437,0.21-0.663,0.309c0.803,1.573,1.24,3.414,1.307,5.504c0.174,5.416-2.028,9.374-6.401,11.583
							c0.42,1.138,0.652,2.413,0.698,3.814c0.09,2.763-0.743,4.958-2.47,6.526C917.67,1005.361,914.186,1006.085,909.639,1006.085z"
							/>
						<path style="fill:#363E44;" d="M927.256,959.705c-0.049,0-0.101-0.001-0.153-0.005l-23.68-1.612
							c-1.214-0.083-2.132-1.135-2.05-2.349c0.082-1.214,1.111-2.126,2.351-2.05l23.68,1.612c1.214,0.083,2.132,1.135,2.05,2.349
							C929.374,958.814,928.406,959.705,927.256,959.705z"/>
						<path style="fill:#363E44;" d="M923.897,976.84c-0.063,0-0.125-0.002-0.187-0.008l-23.015-1.941
							c-1.214-0.102-2.114-1.169-2.011-2.382c0.101-1.213,1.21-2.109,2.381-2.012l23.015,1.941c1.214,0.102,2.114,1.169,2.011,2.382
							C925.994,975.971,925.031,976.84,923.897,976.84z"/>
						<path style="fill:#363E44;" d="M918.858,993.973c-0.045,0-0.09-0.001-0.136-0.004l-23.489-1.425
							c-1.216-0.073-2.14-1.119-2.067-2.334c0.075-1.217,1.139-2.134,2.334-2.067l23.489,1.425c1.216,0.073,2.14,1.119,2.067,2.334
							C920.986,993.072,920.015,993.973,918.858,993.973z"/>
					</g>
				</g>
				<g>
					<g>
						<path style="fill:#BC8271;" d="M735.687,921.445c-37.066,28.129-119.428,144.066-119.428,144.066l22.775,26.067l8.779,3.707
							c28.559,12.06,61.573-0.164,75.392-27.915l41.417-85.541c0,0,7.586,1.878,10.741-1.044c3.812-3.531,4.447-10.733,4.447-10.733
							s4.776-1.208,6.556-6.466c1.608-4.75-1.747-8.346-1.747-8.346s3.972-5.62,1.302-11.324c-3.979-8.5-20.349-11.51-20.349-11.51
							s39.355,3.431,38.869-6.912C803.992,915.958,749.403,911.036,735.687,921.445z"/>
					</g>
					<g>
						<path style="fill:#363E44;" d="M624.705,1056.001c-0.45,0-0.904-0.137-1.296-0.422c-0.984-0.717-1.201-2.096-0.484-3.08
							c6.145-8.445,15.828-21.606,27.05-36.347c0.738-0.968,2.121-1.158,3.09-0.418c0.969,0.737,1.156,2.121,0.42,3.09
							c-11.201,14.71-20.862,27.843-26.994,36.27C626.059,1055.687,625.387,1056.001,624.705,1056.001z"/>
					</g>
					<path style="fill:#363E44;" d="M784.55,957.435c-0.698,0-1.385-0.331-1.813-0.947c-1.712-2.465-5.544-6.927-12.004-9.121
						c-4.728-1.603-9.009-1.365-11.776-0.886c-1.195,0.211-2.34-0.594-2.551-1.792c-0.209-1.199,0.594-2.342,1.794-2.55
						c3.268-0.572,8.339-0.852,13.95,1.054c7.659,2.6,12.189,7.871,14.208,10.781c0.695,1.001,0.446,2.375-0.553,3.069
						C785.422,957.308,784.982,957.435,784.55,957.435z"/>
					<path style="fill:#363E44;" d="M780.06,972.023c-0.648,0-1.288-0.283-1.722-0.827c-2.018-2.519-4.448-4.556-7.226-6.057
						c-4.39-2.374-8.688-2.899-11.461-2.845c-0.002,0-0.006,0-0.009,0c-1.214,0-2.201-0.981-2.205-2.195
						c-0.004-1.218,0.977-2.209,2.196-2.215c0.041,0,0.082,0,0.125,0c4.715,0,9.364,1.166,13.451,3.375
						c3.299,1.783,6.184,4.199,8.57,7.181c0.762,0.951,0.607,2.338-0.342,3.099C781.029,971.865,780.543,972.023,780.06,972.023z"/>
					<path style="fill:#363E44;" d="M764.418,983.829c-0.271,0-0.545-0.051-0.812-0.156c-1.133-0.448-1.686-1.729-1.238-2.862
						l2.306-5.824c0.448-1.134,1.733-1.686,2.862-1.238c1.133,0.448,1.686,1.729,1.238,2.862l-2.306,5.824
						C766.125,983.3,765.294,983.829,764.418,983.829z"/>
				</g>
			</g>
			<g>
				<g>
					<polygon style="fill:#BC8271;" points="719.239,896.837 744.297,832.781 780.124,843.608 770.611,896.17 					"/>
					<path style="fill:#BC8271;" d="M777.754,896.431c0,4.522-14.195,8.188-31.705,8.188c-17.51,0-31.705-3.666-31.705-8.188
						c0-4.522,14.195-9.375,31.705-9.375C763.56,887.055,777.754,891.909,777.754,896.431z"/>
				</g>
				<path style="fill:#BC8271;" d="M808.171,815.713c0,0-5.149,50.171-26.356,51.775c-12.831,0.971-24.59-13.783-27.442-20.708
					c-2.852-6.925,0-18.246,0-18.246s4.309,4.035,7.77,1.371c3.462-2.665-0.537-19.422,14.688-18.738
					C792.055,811.851,793.707,818.289,808.171,815.713z"/>
				<path style="fill:#363E44;" d="M776.376,870.007c-0.194,0-0.39-0.026-0.583-0.08c-7.534-2.061-14.652-8.539-18.362-14.047
					c-0.68-1.01-0.413-2.379,0.596-3.06c1.005-0.682,2.377-0.413,3.06,0.596c3.256,4.831,9.424,10.494,15.869,12.258
					c1.176,0.321,1.867,1.533,1.546,2.708C778.232,869.362,777.345,870.007,776.376,870.007z"/>
				<path style="fill:#363E44;" d="M712.902,888.932c0,0,30.176,3.715,37.08-38.5c4.167-25.478,17.164-37.661,21.928-48.184
					C776.674,791.726,725.169,822.98,712.902,888.932z"/>
				<path style="fill:#BC8271;" d="M761.494,833.638c1.298,4.049,0.042,11.421-4.007,12.719c-4.049,1.298-9.357-3.969-10.655-8.018
					s0.932-8.383,4.98-9.682C755.861,827.359,760.195,829.589,761.494,833.638z"/>
				<g>
					<g>
						<path style="fill:#FFFFFF;" d="M807.054,832.941c-0.044,0.093-0.009,0.191-0.052,0.284c-0.002,0.004-0.005,0.006-0.007,0.01
							c-0.181,1.429-0.368,2.938-0.285,4.376c0.037,0.637,0.309,1.08,0.412,1.676c0.075,0.437,0.146,0.856,0.238,1.284
							c4.262-2.156,6.826-5.875,6.826-5.875S811.013,833.182,807.054,832.941z"/>
						<path style="fill:#363E44;" d="M802.36,833.376c-5.419,1.423-8.983,6.043-9.56,6.832c0.031,0.072,0.064,0.143,0.098,0.214
							c1.017,0.456,6.305,2.633,11.636,1.233c1-0.262,1.93-0.64,2.797-1.076c0.174-0.352,0.332-0.714,0.455-1.099
							c0.731-2.272,0.387-4.628-0.739-6.533C805.563,832.864,803.965,832.955,802.36,833.376z"/>
					</g>
					<g>
						<path style="fill:#FFFFFF;" d="M778.434,833.859c-0.55,1.611-0.667,2.931-0.195,4.492c3.931,1.009,7.447,0.469,7.447,0.469
							s-1.641-5.073-5.691-8.452C779.212,831.348,778.825,832.715,778.434,833.859z"/>
						<path style="fill:#363E44;" d="M778.156,838.328c1.983-2.084,2.733-5.129,1.832-7.953c-0.457-0.376-0.937-0.737-1.458-1.062
							c-5.203-3.245-11.686-2.244-11.686-2.244s1.953,6.262,7.156,9.507C775.345,837.415,776.774,837.966,778.156,838.328z"/>
					</g>
				</g>
				<g>
					<path style="fill:#363E44;" d="M750.915,840.908c-0.941,0-1.813-0.607-2.106-1.554c-0.112-0.361-0.196-0.737-0.245-1.13
						c-0.202-1.534,0.125-3.064,0.922-4.304c0.861-1.338,2.211-2.218,3.708-2.414c0.782-0.104,1.555-0.021,2.308,0.24
						c1.15,0.4,1.757,1.657,1.356,2.807c-0.4,1.152-1.651,1.762-2.808,1.357c-0.097-0.034-0.19-0.045-0.28-0.032
						c-0.286,0.038-0.482,0.283-0.575,0.426c-0.23,0.359-0.325,0.851-0.26,1.348c0.019,0.14,0.047,0.271,0.086,0.397
						c0.36,1.164-0.291,2.399-1.453,2.758C751.35,840.876,751.131,840.908,750.915,840.908z"/>
				</g>
				<path style="fill:#363E44;" d="M790.484,849.085c-0.648,0-1.292-0.284-1.727-0.83c-0.758-0.953-0.603-2.339,0.351-3.098
					c0.265-0.212,0.334-0.34,0.344-0.362c-0.047,0.085-0.189-0.211-0.299-0.404c-0.293-0.507-0.691-1.203-0.982-2.144
					c-0.37-1.204-0.467-2.503-0.284-3.859c0.166-1.207,1.303-2.052,2.48-1.888c1.208,0.163,2.054,1.274,1.891,2.48
					c-0.099,0.726-0.056,1.368,0.127,1.966c0.146,0.475,0.364,0.852,0.592,1.25c0.431,0.751,1.023,1.782,0.842,3.194
					c-0.108,0.837-0.534,2.076-1.964,3.214C791.45,848.928,790.964,849.085,790.484,849.085z"/>
				<path style="fill:#363E44;" d="M784.377,855.439c-1.242,0-2.179-0.394-2.816-0.804c-2.287-1.469-2.711-4.337-2.752-4.659
					c-0.153-1.208,0.702-2.311,1.912-2.464c1.178-0.15,2.297,0.693,2.461,1.894c0.069,0.464,0.359,1.268,0.769,1.523
					c0.291,0.184,0.797,0.084,1.176-0.032c1.156-0.362,2.399,0.285,2.76,1.448c0.364,1.162-0.284,2.399-1.447,2.761
					C785.678,855.343,784.991,855.439,784.377,855.439z"/>
			</g>
		</g>
		<g>
			<ellipse style="fill:#E6D0BE;" cx="656.029" cy="660.778" rx="85.566" ry="85.511"/>
			<path style="fill:#F7F1EB;" d="M649.789,744.751c-48.396,0-87.771-39.349-87.771-87.716c0-48.367,39.375-87.716,87.771-87.716
				c48.396,0,87.771,39.349,87.771,87.716C737.559,705.402,698.185,744.751,649.789,744.751z M649.789,573.729
				c-45.965,0-83.361,37.371-83.361,83.306c0,45.935,37.396,83.306,83.361,83.306c45.965,0,83.361-37.371,83.361-83.306
				C733.15,611.1,695.754,573.729,649.789,573.729z"/>
			<g>
				<g>
					<g>
						<g>
							<g>
								<path style="fill:#F7F1EB;" d="M625.785,681.126c-1.018,0-1.916-0.704-2.147-1.714l-13.793-60.332l-16.125,0.153
									c-0.009,0-0.015,0-0.022,0c-1.208,0-2.194-0.973-2.205-2.184c-0.011-1.218,0.967-2.214,2.183-2.225l17.901-0.17
									c0.009,0,0.015,0,0.022,0c1.027,0,1.921,0.711,2.149,1.714l13.761,60.197l60.611-5.1l-0.028-37.178l-17.555,0.014h-0.002
									c-1.216,0-2.205-0.986-2.205-2.203c0-1.218,0.986-2.206,2.203-2.207l19.759-0.016h0.002c0.583,0,1.143,0.231,1.557,0.645
									c0.416,0.412,0.648,0.973,0.648,1.558l0.032,41.413c0,1.148-0.876,2.103-2.02,2.199l-64.54,5.43
									C625.91,681.124,625.848,681.126,625.785,681.126z"/>
								<path style="fill:#F7F1EB;" d="M673.553,677.107c-1.148,0-2.114-0.888-2.196-2.05l-2.875-40.728l-53.389,0.015l0,0
									c-1.216,0-2.205-0.986-2.205-2.204c0-1.218,0.986-2.206,2.205-2.206l55.443-0.016l0,0c1.158,0,2.119,0.895,2.198,2.05
									l3.019,42.779c0.086,1.214-0.829,2.268-2.043,2.354C673.658,677.105,673.605,677.107,673.553,677.107z"/>
								<path style="fill:#F7F1EB;" d="M620.243,709.59c-3.368,0-6.535-1.31-8.918-3.69c-2.388-2.384-3.703-5.553-3.706-8.926
									c-0.004-6.962,5.654-12.631,12.617-12.638c0.002,0,0.007,0,0.011,0c6.957,0,12.622,5.657,12.626,12.616
									c0.002,3.374-1.309,6.546-3.69,8.932c-2.384,2.387-5.553,3.703-8.927,3.706C620.252,709.59,620.247,709.59,620.243,709.59z
									 M620.247,688.746c-0.002,0-0.004,0-0.006,0c-4.532,0.004-8.216,3.694-8.212,8.224c0.002,2.195,0.857,4.259,2.411,5.809
									c1.55,1.549,3.613,2.402,5.803,2.402c0.004,0,0.006,0,0.009,0c2.196-0.002,4.259-0.858,5.809-2.412
									c1.552-1.553,2.405-3.617,2.403-5.812C628.46,692.428,624.776,688.746,620.247,688.746z"/>
								<path style="fill:#F7F1EB;" d="M695.524,709.529c-3.367,0-6.537-1.31-8.921-3.69c-2.388-2.384-3.703-5.553-3.706-8.926
									c-0.002-3.373,1.309-6.544,3.69-8.931c2.386-2.389,5.456-3.712,8.94-3.706c3.367,0,6.535,1.31,8.918,3.69
									c2.388,2.383,3.703,5.553,3.706,8.926c0.004,6.963-5.654,12.631-12.615,12.637
									C695.532,709.529,695.528,709.529,695.524,709.529z M695.528,688.685c-0.004,0-0.006,0-0.009,0
									c-2.196,0.002-4.259,0.858-5.809,2.411c-1.552,1.552-2.405,3.617-2.403,5.811c0.002,2.195,0.859,4.259,2.411,5.809
									c1.552,1.549,3.613,2.402,5.805,2.402c0.004,0,0.006,0,0.009,0c2.194-0.002,4.257-0.858,5.807-2.411
									c1.552-1.552,2.405-3.617,2.403-5.811c-0.002-2.195-0.857-4.259-2.411-5.809
									C699.78,689.538,697.718,688.685,695.528,688.685z"/>
								<path style="fill:#F7F1EB;" d="M630.669,699.087c-1.216,0-2.205-0.986-2.205-2.203c0-1.218,0.986-2.206,2.203-2.207
									l54.352-0.044h0.002c1.217,0,2.205,0.986,2.205,2.203c0,1.218-0.986,2.206-2.203,2.207l-54.352,0.044H630.669z"/>
								<path style="fill:#F7F1EB;" d="M623.296,689.202c-0.215,0-0.433-0.032-0.65-0.099c-1.163-0.359-1.815-1.593-1.456-2.757
									l2.491-8.075c0.357-1.163,1.58-1.821,2.756-1.457c1.163,0.358,1.815,1.593,1.458,2.757l-2.493,8.075
									C625.112,688.593,624.239,689.202,623.296,689.202z"/>
							</g>
							<path style="fill:#F7F1EB;" d="M657.844,678.429c-1.083,0-2.026-0.796-2.181-1.898l-6.173-43.854
								c-0.17-1.206,0.67-2.32,1.875-2.49c1.223-0.181,2.321,0.671,2.491,1.876l6.173,43.854c0.17,1.206-0.67,2.32-1.875,2.49
								C658.048,678.423,657.945,678.429,657.844,678.429z"/>
							<path style="fill:#F7F1EB;" d="M641.019,679.845c-1.044,0-1.972-0.744-2.166-1.807l-8.328-45.516
								c-0.22-1.198,0.573-2.347,1.772-2.567c1.201-0.213,2.347,0.575,2.564,1.772l8.328,45.516c0.22,1.198-0.573,2.347-1.772,2.567
								C641.284,679.833,641.15,679.845,641.019,679.845z"/>
							<path style="fill:#F7F1EB;" d="M620.721,658.977c-1.169,0-2.144-0.92-2.201-2.101c-0.056-1.217,0.883-2.249,2.099-2.306
								l69.59-3.26c1.238-0.036,2.25,0.884,2.306,2.099c0.056,1.216-0.883,2.249-2.099,2.306l-69.59,3.26
								C620.792,658.976,620.756,658.977,620.721,658.977z"/>
						</g>
					</g>
				</g>
			</g>
		</g>
		<g>
			<g>
				<g>
					<polygon style="fill:#E0AA63;" points="831.386,1738.099 1559.619,1738.099 1446.032,1109.172 973.082,1109.172 					"/>
				</g>
				<path style="fill:#F7F1EB;" d="M1137.76,1686.238c-0.997,0.001-1.901-0.68-2.142-1.693
					c-21.852-91.649-130.784-549.243-129.294-557.348c0.222-1.197,1.376-1.993,2.567-1.77c1.143,0.21,1.916,1.265,1.793,2.401
					c0.196,11.678,84.573,368.434,129.223,555.694c0.282,1.184-0.448,2.374-1.634,2.656
					C1138.102,1686.219,1137.93,1686.238,1137.76,1686.238z"/>
				<path style="fill:#F7F1EB;" d="M864.489,1713.823c-0.769,0-1.514-0.401-1.921-1.116c-0.601-1.059-0.228-2.405,0.831-3.006
					l121.358-68.879v-498.549c0-1.218,0.986-2.205,2.205-2.205c1.219,0,2.205,0.987,2.205,2.205v499.832
					c0,0.794-0.426,1.526-1.117,1.917l-122.475,69.513C865.232,1713.73,864.858,1713.823,864.489,1713.823z"/>
			</g>
			<path style="fill:#E0AA63;" d="M1091.233,1148.893c4.571,0,8.276-3.705,8.276-8.276v-119.716
				c0-27.988,22.768-50.756,50.756-50.756h100.407c27.987,0,50.756,22.768,50.756,50.756v119.716c0,4.571,3.704,8.276,8.275,8.276
				s8.276-3.705,8.276-8.276v-119.716c0-37.113-30.194-67.307-67.307-67.307h-100.407c-37.113,0-67.307,30.194-67.307,67.307
				v119.716C1082.958,1145.189,1086.662,1148.893,1091.233,1148.893z"/>
		</g>
		<g>
			<g>
				<g>
					<polygon style="fill:#EFBC73;" points="1219.97,1792.386 1757.075,1792.386 1673.3,1328.523 1324.477,1328.523 					"/>
				</g>
				<path style="fill:#F7F1EB;" d="M1445.933,1754.715c-0.997,0.001-1.901-0.68-2.142-1.693
					c-16.123-67.615-96.487-405.217-95.365-411.31c0.22-1.196,1.378-1.987,2.567-1.769c1.126,0.207,1.895,1.235,1.798,2.352
					c0.416,9.691,62.471,272.064,95.29,409.703c0.282,1.184-0.448,2.374-1.632,2.656
					C1446.275,1754.696,1446.103,1754.715,1445.933,1754.715z"/>
				<path style="fill:#F7F1EB;" d="M1244.386,1775.061c-0.769,0-1.514-0.401-1.921-1.116c-0.601-1.059-0.228-2.405,0.831-3.006
					l89.213-50.635v-367.366c0-1.218,0.986-2.205,2.205-2.205s2.205,0.987,2.205,2.205v368.649c0,0.793-0.426,1.526-1.118,1.917
					l-90.331,51.27C1245.129,1774.968,1244.754,1775.061,1244.386,1775.061z"/>
			</g>
			<path style="fill:#EFBC73;" d="M1411.619,1357.82c3.371,0,6.104-2.732,6.104-6.104v-88.296c0-20.642,16.793-37.435,37.435-37.435
				h74.055c20.642,0,37.435,16.793,37.435,37.435v88.296c0,3.371,2.732,6.104,6.103,6.104c3.371,0,6.104-2.732,6.104-6.104v-88.296
				c0-27.373-22.269-49.642-49.642-49.642h-74.055c-27.373,0-49.642,22.269-49.642,49.642v88.296
				C1405.516,1355.088,1408.248,1357.82,1411.619,1357.82z"/>
		</g>
		<g>
			<g>
				<g>
					<path style="fill:#D3BBA3;" d="M1827.808,1995.172c0,0,26.716,17.306,47.646,85.592
						c-100.582,55.27-151.374,82.012-152.391,80.237c-0.018-0.032-0.02-0.073-0.007-0.122c-4.079-8.723-6.106-16.848-6.946-24.105
						c-7.667-66.269,76.822-119.204,83.856-123.491C1809.247,2007.245,1818.528,2001.209,1827.808,1995.172z"/>
					<path style="fill:#84524D;" d="M1803.405,1946.568l31.553,59.136c6.707,12.57,1.839,28.197-10.82,34.734l0,0
						c-11.503,5.941-25.632,2.339-32.888-8.383l-28.779-42.526L1803.405,1946.568z"/>
				</g>
				<path style="fill:#363E44;" d="M1767.755,1357.237c0,0-91.213,203.318-94.961,391.026
					c-3.58,179.262,94.961,270.41,94.961,270.41l56.282-55.013c0,0-66.431-294.964,70.172-422.842l18.23-165.83L1767.755,1357.237z"
					/>
				<path style="fill:#E6D0BE;" d="M1905.704,2059.515c0,0,15.256,49.078,14.201,103.96c0,0-98.388,0-122.084,0
					c0.022-0.065,3.849-68.62,76.142-103.96H1905.704z"/>
				<path style="fill:#84524D;" d="M1928.877,2011.891c-0.765,2.005-13.438,37.998-20.364,57.684
					c-4.068,11.56-16.512,18.075-28.225,14.471c-0.19-0.058-0.38-0.119-0.571-0.182c-11.032-3.622-17.348-15.24-14.912-26.594
					l12.714-59.261L1928.877,2011.891z"/>
				<path style="fill:#363E44;" d="M1932.531,2036.801c0,0-37.475,10.567-80.429-11.169c0,0,21.884-390.958-17.5-540.364
					l13.636-102.633l156.642,26.414C2004.88,1409.048,2056.733,1685.618,1932.531,2036.801z"/>
				<path style="fill:#363E44;" d="M1851.189,1592.296c-1.066,0-2.002-0.773-2.175-1.858l-6.976-43.836
					c-0.192-1.203,0.629-2.333,1.83-2.525c1.229-0.184,2.334,0.63,2.523,1.831l6.976,43.836c0.192,1.203-0.629,2.333-1.83,2.525
					C1851.42,1592.288,1851.303,1592.296,1851.189,1592.296z"/>
			</g>
			<g>
				<polygon style="fill:#FFFFFF;" points="1856.75,1390.202 1842.045,1475.439 1725.185,1431.993 1732.924,1389.428 				"/>
				<polygon style="fill:#FFFFFF;" points="1855.202,1393.684 1869.906,1474.171 2034.276,1411.721 2026.537,1369.156 				"/>
				<g>
					<g>
						<path style="fill:#D87355;" d="M1861.006,1086.249c0,0-21.124-33.705-34.052-31.488
							c-87.535,15.009-159.422,65.556-176.66,116.732c-5.862,17.403-7.555,46.781-7.989,65.139
							c-2.344,99.181-15.214,128.526,46.744,117.101c48.674-8.975,31.492-62.591,35.361-74.2
							c-1.844,59.183,1.548,97.513,3.869,130.017c67.33,20.896,220.564,6.965,299.503-23.217
							c-1.557-25.401-6.386-88.291-7.547-123.891c2.354,0.903,21.713,20.279,21.713,20.279l-88.491,115.53l80.298,53.259
							c0,0,130.71-114.849,127.821-172.066c-3.087-61.125-120.671-204.366-245.653-221.614
							C1884.247,1053.458,1861.006,1086.249,1861.006,1086.249z"/>
					</g>
				</g>
				<g>
					<g>
						<g>
							<g>
								<g>
									<path style="fill:#776E42;" d="M1972.536,1582.534c-0.028,0-0.054,0-0.08-0.001l-69.824-2.483
										c-0.586-0.022-1.137-0.273-1.535-0.701c-0.398-0.428-0.611-0.997-0.59-1.581l2.28-64.108
										c0.357-10.085,4.502-20.513,11.373-28.61c7.441-8.768,16.928-13.396,26.559-13.063c1.219,0.043,2.168,1.065,2.125,2.282
										c-0.043,1.219-1.176,2.162-2.28,2.125c-8.365-0.343-16.493,3.792-23.041,11.509c-6.149,7.247-10.012,16.934-10.331,25.914
										l-2.2,61.904l65.417,2.327l2.203-61.905c0.276-7.735-1.184-15.532-4.108-21.953c-0.504-1.109-0.015-2.416,1.094-2.921
										c1.098-0.505,2.411-0.016,2.92,1.093c3.202,7.032,4.799,15.534,4.5,23.939l-2.28,64.108
										C1974.696,1581.597,1973.716,1582.534,1972.536,1582.534z"/>
									<path style="fill:#776E42;" d="M1970.512,1495.481c-0.838,0-1.639-0.479-2.009-1.29c-0.256-0.564-0.525-1.119-0.807-1.667
										c-0.555-1.083-0.129-2.412,0.954-2.968c1.087-0.56,2.411-0.13,2.969,0.953c0.312,0.608,0.612,1.225,0.898,1.85
										c0.504,1.108,0.017,2.416-1.092,2.922C1971.128,1495.417,1970.818,1495.481,1970.512,1495.481z"/>
									<polygon style="fill:#8B865C;" points="2047.616,1854.209 1821.46,1846.167 1846.157,1558.227 2043.435,1565.242 									
										"/>
									<polygon style="fill:#776E42;" points="1846.157,1558.227 1800.906,1814.912 1821.46,1846.167 									"/>
									<polygon style="fill:#8B865C;" points="1846.157,1558.227 1800.906,1814.912 1774.633,1809.767 									"/>
								</g>
							</g>
							<g>
								<path style="fill:#E0AA63;" d="M1932.741,1585.487c-0.329,0-0.659-0.074-0.962-0.221c-0.525-0.255-0.928-0.708-1.12-1.261
									l-20.324-58.545c-6.264-16.216-6.614-29.624-1.018-39.778c6.849-12.432,20.024-15.163,20.58-15.273
									c1.184-0.24,2.356,0.54,2.592,1.735c0.235,1.195-0.543,2.354-1.735,2.59c-0.114,0.023-11.778,2.493-17.602,13.126
									c-4.909,8.956-4.463,21.095,1.322,36.082l19.628,56.534l59.599-20.691l-19.6-56.461c-1.339-3.856-3.365-7.355-6.022-10.399
									c-0.801-0.917-0.706-2.31,0.211-3.111c0.915-0.802,2.308-0.708,3.109,0.211c3.032,3.472,5.342,7.46,6.866,11.852
									l20.323,58.544c0.401,1.151-0.209,2.407-1.359,2.807l-63.765,22.136C1933.23,1585.446,1932.985,1585.487,1932.741,1585.487z
									"/>
								<polygon style="fill:#E0AA63;" points="1873.862,1585.724 1922.695,1832.743 1952.12,1853.723 								"/>
								<polygon style="fill:#EFBC73;" points="1873.862,1585.724 1922.695,1832.743 1897.232,1837.279 								"/>
								<polygon style="fill:#EFBC73;" points="2158.651,1782.028 1952.12,1853.723 1873.862,1585.724 2054.02,1523.184 								"/>
							</g>
						</g>
					</g>
					<g>
						<path style="fill:#84524D;" d="M1955.724,1394.53c0,0-27.999,34.915-30.502,38.256
							c-11.587,15.469-37.197,47.747-28.448,57.714c2.91,3.315,7.983,4.533,13.147,3.458c-0.145,5.656,3.024,10.811,7.97,13.021
							c6.5,2.905,12.536-0.854,12.974-1.137c-0.686,4.328,0.787,8.637,3.954,11.066c4.369,3.351,11.427,2.714,15.959-2.168
							c0.431,1.165,2.109,5.262,6.432,7.403c4.791,2.373,10.894,1.386,15.436-2.522c10.306-13.736,62.922-70.283,62.922-70.283
							L1955.724,1394.53z"/>
						<g>
							<path style="fill:#363E44;" d="M1918.001,1474.536c-0.413,0-0.831-0.115-1.201-0.358l-7.127-4.642
								c-1.021-0.664-1.309-2.031-0.644-3.051c0.663-1.019,2.026-1.309,3.051-0.644l7.127,4.642
								c1.021,0.665,1.309,2.031,0.644,3.051C1919.429,1474.183,1918.722,1474.536,1918.001,1474.536z"/>
							<path style="fill:#363E44;" d="M1936.068,1486.34c-0.414,0-0.829-0.115-1.202-0.358l-7.127-4.642
								c-1.021-0.664-1.309-2.031-0.644-3.051c0.663-1.021,2.028-1.309,3.051-0.644l7.127,4.642
								c1.021,0.664,1.309,2.031,0.644,3.051C1937.496,1485.987,1936.79,1486.34,1936.068,1486.34z"/>
							<path style="fill:#363E44;" d="M1954.331,1498.563c-0.413,0-0.829-0.115-1.201-0.357l-7.127-4.642
								c-1.021-0.663-1.309-2.029-0.644-3.05c0.661-1.02,2.024-1.31,3.051-0.646l7.127,4.643c1.021,0.664,1.309,2.03,0.644,3.051
								C1955.759,1498.209,1955.052,1498.563,1954.331,1498.563z"/>
							<path style="fill:#363E44;" d="M1971.124,1509.306c-0.413,0-0.829-0.115-1.202-0.357l-7.127-4.642
								c-1.021-0.664-1.309-2.03-0.644-3.051c0.663-1.021,2.028-1.31,3.051-0.644l7.127,4.642c1.021,0.664,1.309,2.03,0.644,3.051
								C1972.551,1508.953,1971.845,1509.306,1971.124,1509.306z"/>
						</g>
					</g>
				</g>
				<g>
					<path style="fill:#FFFFFF;" d="M1789.785,1060.687c11.492-2.873,25.08-5.828,35.553-7.542
						c27.509-4.5,59.355-0.603,91.038,3.771c0.126,2.117-0.303,5.175-0.463,7.338c-2.219,30.051-31.895,52.354-66.284,49.815
						C1820.639,1111.93,1794.989,1084.639,1789.785,1060.687z"/>
					<polygon style="fill:#FFFFFF;" points="1839.466,1104.887 1859.071,1091.473 1877.645,1128.105 1903.958,1062.58 					"/>
					<path style="fill:#363E44;" d="M1877.645,1130.309c-0.829,0-1.589-0.465-1.966-1.208l-17.436-34.389l-17.533,11.994
						c-1.005,0.69-2.377,0.429-3.064-0.575c-0.687-1.005-0.431-2.377,0.575-3.064l19.606-13.414
						c0.523-0.361,1.174-0.476,1.792-0.317c0.616,0.157,1.133,0.573,1.419,1.139l16.375,32.293l24.501-61.01
						c0.452-1.132,1.727-1.679,2.868-1.224c1.128,0.453,1.677,1.738,1.223,2.867l-26.314,65.524
						c-0.323,0.803-1.085,1.344-1.949,1.381C1877.709,1130.308,1877.677,1130.309,1877.645,1130.309z"/>
					<polygon style="fill:#FFFFFF;" points="1858.198,1090.045 1833.957,1125.868 1813.218,1065.265 					"/>
					<path style="fill:#363E44;" d="M1832.34,1126.726c-0.127,0-0.256-0.011-0.383-0.033c-0.807-0.143-1.469-0.722-1.718-1.503
						l-18.584-58.448c-0.368-1.161,0.273-2.401,1.434-2.77c1.154-0.367,2.399,0.272,2.769,1.433l17.309,54.44l23.017-29.801
						c0.738-0.961,2.125-1.146,3.092-0.397c0.965,0.745,1.141,2.13,0.396,3.093l-25.588,33.129
						C1833.665,1126.415,1833.016,1126.726,1832.34,1126.726z"/>
				</g>
				<g>
					<g>
						<path style="fill:#776E42;" d="M1701.319,1659.766c-0.049,0-0.099-0.002-0.149-0.005l-84.412-5.711
							c-0.601-0.04-1.158-0.324-1.544-0.785c-0.385-0.462-0.566-1.06-0.5-1.658l5.712-51.41
							c0.644-28.044,25.631-45.131,48.803-45.131c0.347,0,0.691,0.003,1.038,0.012c24.897,0.552,36.22,18.718,36.397,36.476
							l-3.143,66.111c-0.028,0.592-0.293,1.148-0.736,1.542C1702.381,1659.568,1701.858,1659.766,1701.319,1659.766z
							 M1619.354,1649.806l79.871,5.404l3.034-63.739c-0.146-14.361-8.636-31.465-32.088-31.985
							c-21.275-0.519-44.745,15.068-45.345,41.004L1619.354,1649.806z"/>
						<path style="fill:#776E42;" d="M1710.843,1637.886l3.988,253.165l-29.465,24.031
							C1683.042,1839.003,1693.719,1743.31,1710.843,1637.886z"/>
						<polygon style="fill:#8B865C;" points="1710.843,1637.887 1713.859,1891.667 1756.54,1905.723 						"/>
						<polygon style="fill:#8B865C;" points="1554.711,1827.022 1685.366,1915.082 1710.843,1637.887 1611.833,1607.422 						"/>
					</g>
					<g>
						<path style="fill:#84524D;" d="M1713.802,1385.254c0.904,36.674,7.309,122.933,7.599,131.378
							c0.542,15.787,1.533,113.281-10.692,114.71c-5.842,0.683-6.999-28.343-7.135-33.872c-2.093,4.519-4.658,10.411-11.181,9.451
							c-7.663-1.127-7.244-11.633-7.405-12.028c-1.659,4.805-6.71,11.48-11.628,10.951c-6.399-0.688-7.17-7.638-6.893-13.531
							c-0.833,0.58-1.603,10.795-9.267,10.298c-5.627-0.364-7.672-9.41-7.677-17.244c-0.492-14.026-15.045-176.842-13.885-207.447
							C1636.09,1365.941,1700.919,1370.288,1713.802,1385.254z"/>
						<g>
							<path style="fill:#363E44;" d="M1704.166,1599.851c-0.226,0-0.456-0.036-0.682-0.11c-1.158-0.377-1.791-1.621-1.415-2.78
								c0.995-3.052,1.785-6.194,2.347-9.336c1.012-5.66,1.322-11.458,0.919-17.238c-0.084-1.214,0.833-2.268,2.048-2.352
								c1.171-0.085,2.267,0.832,2.353,2.047c0.426,6.141,0.097,12.305-0.98,18.32c-0.599,3.342-1.436,6.681-2.493,9.927
								C1705.959,1599.259,1705.094,1599.851,1704.166,1599.851z"/>
							<path style="fill:#363E44;" d="M1685.406,1597.399c-0.151,0-0.306-0.015-0.461-0.048c-1.191-0.253-1.951-1.423-1.699-2.614
								c0.14-0.658,0.269-1.329,0.392-2.012c1.012-5.653,1.322-11.451,0.922-17.236c-0.084-1.214,0.833-2.267,2.048-2.351
								c1.21-0.067,2.267,0.831,2.353,2.048c0.424,6.144,0.095,12.307-0.982,18.318c-0.131,0.732-0.269,1.448-0.418,2.149
								C1687.339,1596.689,1686.424,1597.399,1685.406,1597.399z"/>
							<path style="fill:#363E44;" d="M1666.626,1594.131c-0.067,0-0.136-0.003-0.202-0.01c-1.214-0.111-2.106-1.183-1.996-2.396
								c0.342-3.743,0.385-7.553,0.123-11.323c-0.084-1.214,0.833-2.267,2.048-2.351c1.18-0.082,2.269,0.831,2.353,2.048
								c0.276,4.004,0.233,8.052-0.131,12.03C1668.714,1593.272,1667.754,1594.131,1666.626,1594.131z"/>
						</g>
					</g>
					<path style="fill:#D87355;" d="M1652.138,1209.593c-22.266,38.067-18.054,220.248-11.458,319.039l89.063-5.746l1.437-192.491
						L1652.138,1209.593z"/>
				</g>
				<path style="fill:#363E44;" d="M1728.281,1411.754c-1.212,0-2.198-0.979-2.205-2.191l-0.967-156.326
					c-0.006-1.218,0.973-2.211,2.192-2.219c0.004,0,0.009,0,0.013,0c1.212,0,2.196,0.979,2.205,2.191l0.967,156.326
					c0.006,1.218-0.973,2.211-2.192,2.219C1728.29,1411.754,1728.286,1411.754,1728.281,1411.754z"/>
				<path style="fill:#363E44;" d="M2020.467,1266.427c-0.532,0-1.066-0.191-1.488-0.578l-22.763-20.831
					c-0.9-0.822-0.96-2.217-0.138-3.115c0.823-0.898,2.218-0.96,3.114-0.138l22.763,20.83c0.9,0.823,0.96,2.217,0.138,3.116
					C2021.658,1266.186,2021.063,1266.427,2020.467,1266.427z"/>
				<path style="fill:#363E44;" d="M1949.53,1382.368c-0.577,0-1.156-0.226-1.589-0.675c-0.844-0.877-0.818-2.274,0.06-3.118
					l61.784-59.497c0.874-0.844,2.274-0.818,3.118,0.058c0.844,0.877,0.818,2.274-0.06,3.118l-61.784,59.497
					C1950.632,1382.163,1950.081,1382.368,1949.53,1382.368z"/>
			</g>
			<g>
				<path style="fill:#84524D;" d="M1861.8,1086.879c-1.755,2.005-4.765,2.342-6.894,0.739
					c-10.114-7.611-35.174-29.886-35.308-31.914l-4.959-74.638l73.779-4.904l5.229,79.492
					C1883.12,1067.681,1872.325,1074.853,1861.8,1086.879z"/>
				
					<rect x="1799.616" y="881.428" transform="matrix(-0.9996 -0.0293 0.0293 -0.9996 3677.0146 1899.1456)" style="fill:#363E44;" width="105.585" height="82.458"/>
				<g>
					<path style="fill:#84524D;" d="M1904.857,946.116c0.513,29.241-13.873,75.783-51.621,76.445
						c-37.748,0.662-53.757-45.347-54.27-74.588s23.506-45.724,52.747-46.237C1880.953,901.224,1904.344,916.875,1904.857,946.116z"
						/>
					<path style="fill:#84524D;" d="M1810.573,959.844c5.223,11.238,3.383,23.17-4.109,26.652
						c-7.492,3.482-17.799-2.806-23.022-14.044c-5.223-11.238-3.383-23.17,4.109-26.652
						C1795.043,942.318,1805.35,948.606,1810.573,959.844z"/>
					<path style="fill:#84524D;" d="M1893.408,958.391c-4.826,11.414-2.569,23.275,5.041,26.492
						c7.609,3.217,17.69-3.428,22.515-14.842c4.825-11.414,2.569-23.275-5.041-26.492
						C1908.314,940.332,1898.233,946.977,1893.408,958.391z"/>
					<path style="fill:#363E44;" d="M1909.104,976.498c-0.717,0-1.419-0.348-1.843-0.99c-0.67-1.016-0.39-2.385,0.627-3.055
						c1.901-1.253,3.606-3.427,4.679-5.962c1.072-2.535,1.443-5.273,1.018-7.509c-0.215-1.125-0.831-3.123-2.558-3.853
						c-0.239-0.101-0.493-0.174-0.756-0.216c-1.203-0.195-2.02-1.326-1.826-2.529c0.194-1.201,1.315-2.024,2.528-1.825
						c0.614,0.099,1.21,0.27,1.772,0.509c2.681,1.133,4.517,3.651,5.172,7.09c0.592,3.115,0.134,6.684-1.29,10.051
						c-1.423,3.365-3.665,6.18-6.311,7.926C1909.942,976.381,1909.52,976.498,1909.104,976.498z"/>
					<path style="fill:#363E44;" d="M1795.918,978.482c-0.392,0-0.788-0.103-1.145-0.323c-2.709-1.651-5.047-4.386-6.587-7.7
						c-1.54-3.314-2.123-6.864-1.639-9.998c0.532-3.46,2.28-6.042,4.918-7.268c0.553-0.257,1.143-0.45,1.753-0.571
						c1.191-0.246,2.353,0.538,2.59,1.733c0.239,1.195-0.538,2.355-1.733,2.592c-0.263,0.052-0.515,0.134-0.749,0.243
						c-1.699,0.79-2.246,2.808-2.42,3.941c-0.347,2.249,0.121,4.972,1.281,7.468c1.158,2.496,2.939,4.608,4.881,5.794
						c1.04,0.634,1.369,1.991,0.734,3.031C1797.386,978.107,1796.661,978.482,1795.918,978.482z"/>
					<path style="fill:#363E44;" d="M1900.746,978.773c-0.2,0-0.403-0.028-0.603-0.084c-1.171-0.331-1.852-1.55-1.52-2.723
						c2.229-7.879,3.596-16.275,3.951-24.278c0.054-1.218,1.171-2.149,2.3-2.105c1.216,0.054,2.16,1.084,2.106,2.301
						c-0.37,8.338-1.794,17.081-4.115,25.283C1902.591,978.139,1901.706,978.773,1900.746,978.773z"/>
					<path style="fill:#363E44;" d="M1805.071,983.223c-0.909,0-1.761-0.567-2.08-1.474c-3.372-9.576-5.538-20.293-6.095-30.177
						c-0.069-1.217,0.861-2.258,2.076-2.326c1.195-0.062,2.259,0.86,2.325,2.077c0.536,9.481,2.616,19.767,5.854,28.963
						c0.405,1.149-0.198,2.407-1.348,2.812C1805.562,983.182,1805.314,983.223,1805.071,983.223z"/>
				</g>
				<path style="fill:#363E44;" d="M1853.017,1025.687c-15.063,0-27.099-9.675-35.91-18.114c-0.881-0.842-0.911-2.238-0.067-3.118
					c0.844-0.881,2.239-0.907,3.116-0.067c8.724,8.355,19.445,16.889,32.857,16.889c0.041,0,0.08,0,0.121,0
					c13.483-0.052,24.302-9.248,32.222-17.254c0.855-0.865,2.254-0.874,3.118-0.017c0.866,0.856,0.874,2.252,0.017,3.118
					c-8.52,8.612-20.235,18.505-35.339,18.563C1853.105,1025.687,1853.062,1025.687,1853.017,1025.687z"/>
				<g>
					<path style="fill:#FFFFFF;" d="M1899.776,947.146c0,0-2.335,4.079-6.689,8.216c-2.893,2.749-9.039-0.192-13.621,1.429
						c-5.724,2.024-9.25,7.58-13.715,6.912c-4.487-0.672-7.536-1.858-7.536-1.858s1.297-2.266,3.76-5.132
						c3.038-3.536,8.532-2.112,14.87-4.354c5.339-1.888,10.139-7.75,14.475-7.197
						C1896.306,945.796,1899.776,947.146,1899.776,947.146z"/>
					<path style="fill:#363E44;" d="M1876.163,946.484c-6.346,2.244-11.152,6.699-14.189,10.237
						c0.649,2.609,1.938,5.013,3.749,6.977c4.468,0.672,10.37,0.837,16.106-1.192c4.617-1.633,8.407-4.436,11.309-7.206
						c0.553-3.599-0.156-7.133-1.824-10.131C1886.976,944.615,1881.505,944.595,1876.163,946.484z"/>
				</g>
				<g>
					<path style="fill:#FFFFFF;" d="M1802.881,948.845c0,0,2.919,4.706,8.169,8.994c2.801,2.287,8.351-0.828,12.39,0.443
						c5.378,1.692,8.747,6.782,13.052,6.085c4.991-0.808,8.439-2.29,8.439-2.29s-1.294-2.086-3.708-4.746
						c-3.146-3.467-10.571-0.255-17.142-2.323c-5.422-1.706-8.546-9.147-12.868-8.436
						C1806.281,947.384,1802.881,948.845,1802.881,948.845z"/>
					<path style="fill:#363E44;" d="M1841.139,957.239c-3.152-3.453-8.169-7.834-14.682-9.883c-5.436-1.71-10.933-1.486-15.26-0.771
						c-1.256,3.102-1.565,6.618-0.627,10.099c0.094,0.349,0.215,0.683,0.33,1.02c2.829,2.337,6.337,4.568,10.455,5.864
						c5.437,1.711,10.935,1.486,15.262,0.771C1838.738,962.416,1840.295,959.958,1841.139,957.239z"/>
				</g>
				<path style="fill:#363E44;" d="M1853.618,985.114c-0.773,0-1.522-0.407-1.927-1.129c-0.594-1.063-0.213-2.406,0.848-3
					c1.753-0.98,2.784-2.002,2.902-2.881c0.075-0.543-0.204-1.056-0.958-2.279c-0.633-1.025-1.421-2.301-2.017-4.045
					c-0.874-2.556-1.072-5.33-0.586-8.247c0.198-1.201,1.324-2.009,2.536-1.812c1.201,0.2,2.013,1.336,1.813,2.537
					c-0.364,2.187-0.226,4.236,0.409,6.093c0.437,1.277,1.027,2.233,1.596,3.156c0.919,1.49,1.871,3.03,1.578,5.187
					c-0.319,2.35-2.041,4.416-5.12,6.139C1854.352,985.024,1853.982,985.114,1853.618,985.114z"/>
				<path style="fill:#363E44;" d="M1848.513,1001.452c-0.947,0-1.895-0.114-2.818-0.348c-2.207-0.56-4.168-1.779-5.527-3.432
					c-0.771-0.941-0.635-2.331,0.306-3.103c0.945-0.774,2.33-0.635,3.105,0.306c0.762,0.931,1.901,1.625,3.202,1.955
					c2.175,0.549,4.672,0.006,6.201-1.356c0.909-0.809,2.304-0.734,3.113,0.178c0.812,0.909,0.732,2.303-0.177,3.112
					C1853.973,1000.499,1851.256,1001.452,1848.513,1001.452z"/>
				<g>
					<path style="fill:#363E44;" d="M1886.595,898.591c3.646,7.802,12.926,11.171,20.728,7.525
						c7.802-3.646,23.526-13.74,19.88-21.542c-3.646-7.802-25.281-10.358-33.083-6.712S1882.949,890.789,1886.595,898.591z"/>
					<path style="fill:#363E44;" d="M1774.676,909.02c4.452,9.526,29,7.088,38.525,2.636c9.526-4.451,13.639-15.782,9.188-25.308
						s-15.782-13.639-25.308-9.188C1787.555,881.612,1770.224,899.494,1774.676,909.02z"/>
					<path style="fill:#363E44;" d="M1873.999,881.333c4.452,9.526,15.782,13.639,25.308,9.188
						c9.526-4.452,24.38-28.106,17.413-35.205c-7.365-7.504-24.007-3.743-33.533,0.709
						C1873.661,860.476,1869.547,871.807,1873.999,881.333z"/>
					<path style="fill:#363E44;" d="M1808.132,879.841c2.806,6.005,9.949,8.598,15.954,5.792s8.598-9.949,5.792-15.954
						c-2.806-6.005-14.987-14.097-20.992-11.291C1802.881,861.194,1805.326,873.836,1808.132,879.841z"/>
					<path style="fill:#363E44;" d="M1825.717,882.891c4.452,9.526,15.782,13.639,25.308,9.188
						c9.526-4.452,13.639-15.782,9.188-25.308c-4.451-9.526-26.151-36.495-35.677-32.044S1821.266,873.365,1825.717,882.891z"/>
					<path style="fill:#363E44;" d="M1830.422,917.648c4.451,9.526,25.973,5.761,35.499,1.31
						c9.526-4.452,13.639-15.782,9.188-25.308c-4.452-9.526-15.782-13.639-25.308-9.188
						C1840.274,888.914,1825.97,908.123,1830.422,917.648z"/>
					<path style="fill:#363E44;" d="M1850.332,873.138c4.452,9.526,15.782,13.639,25.308,9.188
						c9.526-4.452,13.639-15.782,9.188-25.308c-4.452-9.526-20.777-21.914-30.303-17.463
						C1844.999,844.007,1845.881,863.613,1850.332,873.138z"/>
					<path style="fill:#363E44;" d="M1875.414,903.859c-6.005,2.806-8.598,9.949-5.792,15.954
						c2.806,6.005,12.691,14.337,18.696,11.531c6.005-2.806,5.856-15.688,3.05-21.693
						C1888.561,903.646,1881.418,901.053,1875.414,903.859z"/>
				</g>
			</g>
		</g>
		<g>
			<g>
				<g>
					<g>
						<g>
							<g>
								
									<ellipse transform="matrix(0.7071 -0.7071 0.7071 0.7071 -961.8481 1349.3018)" style="fill:#D3BBA3;" cx="1147.827" cy="1835.704" rx="44.489" ry="44.489"/>
								
									<ellipse transform="matrix(0.9686 -0.2487 0.2487 0.9686 -410.2821 423.007)" style="fill:#D3BBA3;" cx="1469.165" cy="1835.443" rx="44.489" ry="44.489"/>
								<path style="fill:#363E44;" d="M1192.316,1837.563c-1.216,0-2.205-0.986-2.205-2.203c0-1.218,0.986-2.206,2.203-2.207
									l232.01-0.189h0.002c1.217,0,2.205,0.986,2.205,2.203c0,1.218-0.986,2.206-2.203,2.207l-232.01,0.189H1192.316z"/>
							</g>
						</g>
					</g>
				</g>
			</g>
			<g>
				<g>
					<g>
						<g>
							<path style="fill:#363E44;" d="M1182.916,1772.305c-1.018,0-1.916-0.704-2.147-1.714l-60.168-263.196l-74.636,0.711
								c-0.009,0-0.015,0-0.022,0c-1.208,0-2.194-0.973-2.205-2.183c-0.011-1.219,0.967-2.214,2.183-2.226l76.413-0.728
								c0.009,0,0.015,0,0.021,0c1.027,0,1.921,0.711,2.149,1.714l60.135,263.06l271.576-22.846l-0.14-172.542l-82.14,0.067h-0.002
								c-1.217,0-2.205-0.986-2.205-2.203c0-1.218,0.986-2.206,2.203-2.207l84.345-0.069h0.002c0.583,0,1.143,0.231,1.557,0.645
								c0.416,0.412,0.648,0.973,0.648,1.558l0.144,176.776c0,1.148-0.876,2.104-2.02,2.199l-275.505,23.176
								C1183.041,1772.302,1182.978,1772.305,1182.916,1772.305z"/>
							<path style="fill:#363E44;" d="M1386.823,1755.152c-1.148,0-2.115-0.888-2.196-2.05l-12.747-180.558l-234.611,0.069
								c-1.217,0-2.205-0.986-2.205-2.204c0-1.218,0.986-2.206,2.205-2.206l236.665-0.07c1.156,0,2.119,0.895,2.198,2.05
								l12.891,182.609c0.086,1.214-0.829,2.268-2.043,2.354C1386.928,1755.149,1386.874,1755.152,1386.823,1755.152z"/>
							<path style="fill:#363E44;" d="M1159.263,1893.812c-12.456,0-24.171-4.846-32.988-13.649
								c-8.826-8.813-13.692-20.535-13.703-33.007c-0.019-25.747,20.909-46.71,46.656-46.732c0.011,0,0.026,0,0.039,0
								c25.73,0,46.672,20.92,46.693,46.655l0,0c0.011,12.473-4.838,24.202-13.649,33.029c-8.813,8.827-20.535,13.693-33.008,13.703
								C1159.291,1893.812,1159.276,1893.812,1159.263,1893.812z M1159.268,1804.834c-0.013,0-0.024,0-0.035,0
								c-23.316,0.019-42.271,19.004-42.251,42.318c0.009,11.294,4.416,21.909,12.409,29.89c7.984,7.971,18.592,12.36,29.873,12.36
								c0.013,0,0.024,0,0.037,0c11.295-0.009,21.91-4.416,29.89-12.409c7.98-7.992,12.37-18.615,12.361-29.909l0,0
								C1201.532,1823.781,1182.565,1804.834,1159.268,1804.834z"/>
							<path style="fill:#363E44;" d="M1480.601,1893.55c-12.456,0-24.171-4.846-32.988-13.649
								c-8.826-8.813-13.692-20.535-13.703-33.007c-0.019-25.747,20.909-46.71,46.656-46.732c0.011,0,0.026,0,0.039,0
								c25.73,0,46.672,20.92,46.693,46.655l0,0c0.011,12.473-4.838,24.202-13.649,33.029c-8.813,8.827-20.535,13.693-33.008,13.703
								C1480.629,1893.55,1480.614,1893.55,1480.601,1893.55z M1480.605,1804.573c-0.013,0-0.024,0-0.034,0
								c-23.316,0.019-42.271,19.004-42.251,42.318c0.009,11.294,4.416,21.909,12.409,29.89c7.984,7.971,18.592,12.36,29.873,12.36
								c0.013,0,0.024,0,0.037,0c11.295-0.009,21.91-4.416,29.89-12.409c7.979-7.992,12.37-18.615,12.361-29.909l0,0
								C1522.869,1823.519,1503.902,1804.573,1480.605,1804.573z"/>
							<path style="fill:#363E44;" d="M1203.754,1848.977c-1.216,0-2.205-0.986-2.205-2.203c0-1.218,0.986-2.206,2.203-2.207
								l232.012-0.188h0.002c1.217,0,2.205,0.986,2.205,2.203c0,1.218-0.986,2.206-2.203,2.207l-232.012,0.188H1203.754z"/>
							<path style="fill:#363E44;" d="M1172.29,1806.776c-0.215,0-0.433-0.032-0.65-0.099c-1.163-0.359-1.815-1.593-1.458-2.756
								l10.628-34.471c0.36-1.164,1.587-1.818,2.758-1.458c1.163,0.359,1.815,1.593,1.458,2.756l-10.628,34.471
								C1174.105,1806.167,1173.233,1806.776,1172.29,1806.776z"/>
						</g>
						<path style="fill:#363E44;" d="M1319.759,1760.793c-1.083,0-2.026-0.796-2.181-1.898l-26.344-187.195
							c-0.17-1.206,0.67-2.32,1.875-2.49c1.229-0.185,2.321,0.671,2.491,1.876l26.344,187.196c0.17,1.206-0.67,2.32-1.875,2.49
							C1319.963,1760.786,1319.86,1760.793,1319.759,1760.793z"/>
						<path style="fill:#363E44;" d="M1247.941,1766.834c-1.044,0-1.972-0.744-2.166-1.807l-35.546-194.292
							c-0.22-1.198,0.573-2.347,1.772-2.567c1.202-0.209,2.347,0.576,2.564,1.772l35.546,194.292
							c0.22,1.198-0.573,2.347-1.772,2.567C1248.205,1766.823,1248.072,1766.834,1247.941,1766.834z"/>
						<path style="fill:#363E44;" d="M1161.302,1677.763c-1.169,0-2.144-0.921-2.2-2.102c-0.056-1.216,0.883-2.249,2.099-2.306
							l297.048-13.917c1.249-0.03,2.25,0.884,2.306,2.099c0.056,1.217-0.883,2.249-2.099,2.306l-297.048,13.917
							C1161.374,1677.762,1161.337,1677.763,1161.302,1677.763z"/>
					</g>
				</g>
			</g>
		</g>
		<g>
			<g>
				<path style="fill:#E6D0BE;" d="M648.042,1668.484c-46.562-74.921-110.776-159.019-192.394-148.737
					c-62.946,7.93-124.851,94.893-115.098,298.531c7.622,159.133,79.386,249.735,120.754,280.437
					c118.477,87.929,332.448,86.065,457.592-40.334c16.501-16.667,106.668-107.738,84.116-210.073
					C978.985,1739.28,834.323,1650.626,648.042,1668.484z"/>
				<path style="fill:#BC8271;" d="M663.403,2162.198c-75.845,0.001-151.097-21.718-205.283-61.951
					c-50.409-37.426-111.705-131.919-118.556-275.055c-1.219-25.46-2.47-51.586-1.001-78.561c0.065-1.217,1.133-2.164,2.321-2.082
					c1.214,0.066,2.147,1.106,2.08,2.321c-1.453,26.75-0.209,52.762,0.997,77.916c6.787,141.792,67.152,235.069,116.786,271.922
					c77.838,57.793,199.84,76.846,303.574,47.411c1.176-0.332,2.39,0.346,2.724,1.519c0.332,1.171-0.347,2.39-1.518,2.723
					C732.659,2157.686,697.965,2162.197,663.403,2162.198z"/>
			</g>
			<g>
				<g>
					<g>
						<g>
							<polygon style="fill:#E2A18D;" points="1059.289,2021.031 1038,1930.719 924.942,1973.514 960.068,2060.853 							"/>
						</g>
						<path style="fill:#363E44;" d="M1108.238,1883.715l-78.002,50.164l29.768,78.875l25.874,33.449
							c18.705,24.298,60.159,29.826,90.516,18.103L1108.238,1883.715z"/>
					</g>
					<g>
						<polygon style="fill:#E2A18D;" points="1155.414,2007.413 1096.961,2079.517 1013.743,1991.904 1083.365,1928.483 						"/>
						<path style="fill:#363E44;" d="M1089.655,2131.083l-28.138-88.86l81.078-48.852l45.278-12.818
							c32.817-9.364,70.868,10.682,87.417,38.678L1089.655,2131.083z"/>
					</g>
					<g>
						<path style="fill:#8B865C;" d="M540.926,1867.978c0,0,31.1,73.106,89.062,92.013c66.327,21.635,255.872-67.532,255.872-67.532
							l127.883,122.021l94.152-81.938c0,0-108.478-171.426-187.547-194.387C820.356,1709.116,540.926,1867.978,540.926,1867.978z"/>
						<g>
							<path style="fill:#8B865C;" d="M531.04,1879.336c0,0,49.337-81.395,108.758-67.735
								c67.996,15.63,160.832,160.264,160.832,160.264l186.111-41.709l24.817,121.743c0,0-181.433,90.997-261.03,69.939
								C649.866,2095.208,531.04,1879.336,531.04,1879.336z"/>
							<path style="fill:#363E44;" d="M1001.558,2005.059c-1.027,0-1.944-0.72-2.157-1.765l-14.385-70.557l-49.542,9.645
								c-1.199,0.236-2.353-0.548-2.586-1.743c-0.232-1.195,0.547-2.352,1.742-2.585l51.688-10.063
								c1.184-0.227,2.343,0.537,2.582,1.724l14.82,72.699c0.243,1.193-0.525,2.358-1.718,2.601
								C1001.854,2005.045,1001.705,2005.059,1001.558,2005.059z"/>
							<path style="fill:#363E44;" d="M777.567,1938.367c-0.678,0-1.348-0.312-1.781-0.901l-2.976-4.075
								c-9.045-12.411-19.299-26.477-34.683-41.384c-0.874-0.847-0.896-2.243-0.047-3.118c0.846-0.876,2.246-0.895,3.118-0.049
								c15.656,15.17,26.027,29.399,35.176,41.954l2.969,4.064c0.719,0.982,0.508,2.362-0.476,3.082
								C778.476,1938.228,778.019,1938.367,777.567,1938.367z"/>
						</g>
					</g>
				</g>
				<g>
					<path style="fill:#E2A18D;" d="M731.623,1556.181c94.178,56.069,142.562,100.285,120.539,128.728
						c-12.776,16.5-82.103-0.554-158.523-41.462C704.838,1615.831,717.219,1589.228,731.623,1556.181z"/>
					<path style="fill:#E2A18D;" d="M451.073,1627.599c-20.341,42.829-86.215,163.152-38.243,188.276
						c39.68,20.781,98.955-99.026,121.767-140.36C506.755,1659.543,478.914,1643.571,451.073,1627.599z"/>
					<path style="fill:#D87355;" d="M424.763,1631.732c0,0,70.132-65.658,148.209-83.112
						c78.078-17.454,161.822-11.346,161.822-11.346l-7.749,105.923l61.223,149.335l-259.89,99.925l-31.797-151.115L424.763,1631.732
						z"/>
					<g>
						<path style="fill:#E2A18D;" d="M800.999,1627.836c-26.252,22.424-90.692,72.173-96.789,77.28
							c-11.397,9.546-71.229,62.362-64.536,71.813c3.198,4.516,15.185-5.139,19.143-8.52c-1.848,4.305-10.739,20.071-5.962,24.031
							c5.612,4.653,19.085-12.513,19.463-12.648c-2.321,4.182-12.241,20.466-8.775,23.574c4.509,4.044,18.285-8.34,22.238-12.238
							c0.118,0.948-9.244,17.722-6.38,20.083c3.172,2.616,16.295-8.625,21.908-12.595c10.133-8.473,51.28-39.291,71.98-53.312
							c48.618-32.929,78.873-60.395,78.873-60.395S819.588,1627.44,800.999,1627.836z"/>
						<path style="fill:#363E44;" d="M752.009,1668.57c-0.648,0-1.292-0.284-1.727-0.831c-0.758-0.952-0.601-2.339,0.351-3.098
							c12.99-10.351,39.863-31.856,48.601-39.154c0.935-0.781,2.323-0.655,3.105,0.279c0.779,0.935,0.654,2.325-0.28,3.106
							c-8.766,7.323-35.676,28.855-48.678,39.219C752.976,1668.413,752.489,1668.57,752.009,1668.57z"/>
						<g>
							<path style="fill:#363E44;" d="M658.319,1770.31c-0.375,0-0.754-0.095-1.1-0.296c-1.055-0.609-1.417-1.958-0.807-3.012
								c1.611-2.785,3.426-5.476,5.396-8.002c3.54-4.542,7.657-8.656,12.232-12.223c0.958-0.75,2.347-0.577,3.096,0.383
								c0.747,0.96,0.577,2.345-0.383,3.094c-4.291,3.346-8.15,7.2-11.468,11.458c-1.845,2.365-3.546,4.888-5.053,7.497
								C659.822,1769.915,659.082,1770.31,658.319,1770.31z"/>
							<path style="fill:#363E44;" d="M671.843,1781.895c-0.452,0-0.909-0.138-1.301-0.426c-0.982-0.719-1.195-2.098-0.476-3.081
								c0.398-0.544,0.812-1.093,1.24-1.643c3.544-4.544,7.661-8.658,12.236-12.226c0.96-0.751,2.345-0.577,3.096,0.383
								c0.747,0.96,0.577,2.346-0.383,3.094c-4.291,3.345-8.15,7.201-11.47,11.459c-0.403,0.516-0.79,1.028-1.163,1.537
								C673.193,1781.583,672.524,1781.895,671.843,1781.895z"/>
							<path style="fill:#363E44;" d="M685.953,1792.979c-0.536,0-1.074-0.195-1.499-0.588c-0.894-0.829-0.945-2.223-0.118-3.117
								c2.562-2.763,5.376-5.343,8.358-7.668c0.96-0.75,2.345-0.577,3.096,0.383c0.747,0.96,0.577,2.346-0.383,3.094
								c-2.799,2.181-5.437,4.6-7.837,7.19C687.135,1792.742,686.545,1792.979,685.953,1792.979z"/>
						</g>
					</g>
					<g>
						<path style="fill:#2D353A;" d="M911.246,1800.51l-289.304,51.43c-11.834,2.104-23.133-5.782-25.241-17.615l-0.003-0.015
							l332.169-59.05l0,0C930.976,1787.099,923.086,1798.406,911.246,1800.51z"/>
						<polygon style="fill:#363E44;" points="948.884,1771.648 692.234,1817.273 728.558,1623.109 985.208,1577.484 						"/>
						<path style="fill:#F2E6DC;" d="M855.382,1692.461c-0.703,5.603-4.556,9.735-8.607,9.228c-4.051-0.507-6.765-5.46-6.063-11.063
							c0.702-5.603,4.556-9.735,8.607-9.228C853.37,1681.904,856.085,1686.857,855.382,1692.461z"/>
					</g>
					<g>
						<path style="fill:#E2A18D;" d="M438.151,1730.979c59.76,20.39,128.27,56.093,148.282,61.412
							c1.953-0.17,5.398-0.485,9.819,0.333c16.383,3.029,19.917,16.758,35.689,27.795c17.895,12.524,35.07,9.455,35.566,15.007
							c0.345,3.862-5.807,6.842-19.55,7.86c-0.001,0-0.001,0.002,0,0.002c10.53,0.425,24.786,1.625,24.534,7.438
							c-0.651,6.696-17.565,7.251-27.814,7.088c12.406,0.198,18.943,4.011,17.994,7.217c-1.494,5.046-11.15,7.13-27.535,6.233
							l0,0.001c11.141,3.777,13.28,6.352,11.749,8.981c-2.795,4.801-16.252,3.81-28.014,1.112
							c-13.241-3.037-43.005-17.538-48.711-22.055c-0.001-0.001-154.822-42.61-154.822-42.61S438.149,1730.978,438.151,1730.979z"/>
						<path style="fill:#363E44;" d="M491.472,1753.893c-0.288,0-0.579-0.057-0.861-0.176c-20.345-8.63-37.738-15.385-53.172-20.651
							c-1.152-0.393-1.768-1.646-1.374-2.798c0.392-1.153,1.643-1.77,2.799-1.375c15.535,5.3,33.025,12.092,53.469,20.765
							c1.122,0.475,1.645,1.769,1.169,2.891C493.145,1753.388,492.329,1753.893,491.472,1753.893z"/>
						<path style="fill:#E2A18D;" d="M615.111,1813.766c21.333-3.507,28.284-9.288,27.62-12.647
							c-1.117-5.65-20.556-10.104-52.381-8.902C596.71,1798.838,608.752,1807.144,615.111,1813.766z"/>
						<g>
							<path style="fill:#363E44;" d="M621.813,1815.049c-0.568,0-1.137-0.219-1.57-0.656c-1.856-1.882-3.531-3.734-5.15-5.523
								c-3.451-3.814-6.432-7.109-10.118-9.609c-1.008-0.684-1.27-2.055-0.586-3.063s2.056-1.268,3.062-0.587
								c4.125,2.799,7.422,6.443,10.912,10.301c1.587,1.755,3.23,3.57,5.019,5.383c0.855,0.868,0.846,2.263-0.021,3.119
								C622.932,1814.837,622.373,1815.049,621.813,1815.049z"/>
							<path style="fill:#363E44;" d="M647.62,1845.062c-0.086,0-0.174-0.005-0.263-0.015c-3.998-0.478-7.904-1.484-11.614-2.989
								c-2.56-1.04-5.036-2.323-7.362-3.815c-1.025-0.658-1.322-2.022-0.665-3.047c0.659-1.026,2.02-1.322,3.047-0.665
								c2.097,1.347,4.332,2.504,6.638,3.441c3.346,1.359,6.871,2.265,10.477,2.696c1.21,0.145,2.073,1.242,1.929,2.451
								C649.674,1844.238,648.723,1845.062,647.62,1845.062z"/>
							<path style="fill:#363E44;" d="M645.947,1859.556c-0.086,0-0.174-0.005-0.263-0.015c-3.998-0.478-7.904-1.484-11.614-2.989
								c-2.551-1.037-5.028-2.32-7.362-3.815c-1.025-0.657-1.322-2.021-0.665-3.046c0.654-1.026,2.02-1.326,3.047-0.666
								c2.104,1.349,4.339,2.507,6.638,3.441c3.346,1.359,6.871,2.265,10.477,2.696c1.21,0.145,2.073,1.242,1.929,2.451
								C648.002,1858.733,647.05,1859.556,645.947,1859.556z"/>
							<path style="fill:#363E44;" d="M634.848,1873.417c-0.086,0-0.174-0.005-0.263-0.015c-3.998-0.478-7.904-1.484-11.614-2.989
								c-2.551-1.037-5.028-2.32-7.362-3.815c-1.025-0.657-1.322-2.021-0.665-3.046c0.655-1.025,2.02-1.326,3.047-0.666
								c2.104,1.349,4.339,2.507,6.638,3.441c3.346,1.359,6.871,2.265,10.477,2.696c1.21,0.145,2.073,1.242,1.929,2.451
								C636.902,1872.594,635.95,1873.417,634.848,1873.417z"/>
						</g>
					</g>
				</g>
				<g>
					<path style="fill:#E2A18D;" d="M584.081,1416.463c2.188-0.622,23.226-6.262,38.756,5.981
						c11.556,9.11,15.251,22.834,17.964,46.79c3.195,28.21,1.16,45.52-5.864,52.484c-11.099,11.003-52.666-1.501-71.407-23.225
						c-13.527-15.68-16.483-38.514-8.751-57.876C562.49,1421.309,582.685,1416.86,584.081,1416.463z"/>
					<path style="fill:#E2A18D;" d="M589.992,1596.365L589.992,1596.365c-17.682,0.928-32.768-12.653-33.698-30.335l-5.118-97.336
						c-0.93-17.684,12.654-32.774,30.338-33.702h0c17.682-0.928,32.768,12.653,33.698,30.335l5.118,97.336
						C621.26,1580.348,607.677,1595.438,589.992,1596.365z"/>
					<path style="fill:#363E44;" d="M618.549,1528.762c-0.049,0-0.099-0.001-0.149-0.005c-16.661-1.115-42.12-11.291-56.492-27.95
						c-0.797-0.923-0.693-2.315,0.228-3.11c0.922-0.793,2.315-0.693,3.109,0.229c13.098,15.181,37.46,25.361,53.447,26.432
						c1.217,0.081,2.136,1.132,2.054,2.347C620.667,1527.87,619.698,1528.762,618.549,1528.762z"/>
					<g>
						<path style="fill:#FFFFFF;" d="M594.718,1465.232c0,0,4.042,7.71,11.701,12.865c1.609,1.083,7.348-13.965,5.332-14.274
							C602.762,1462.449,594.718,1465.232,594.718,1465.232z"/>
						<path style="fill:#363E44;" d="M634.865,1481.135c0,0-12.056,4.171-23.142-0.221c-1.938-0.768-3.715-1.749-5.333-2.841
							c-0.866-5.517,1.283-10.849,5.282-14.26c2.041,0.306,4.131,0.825,6.188,1.64
							C628.946,1469.844,634.865,1481.135,634.865,1481.135z"/>
					</g>
					<path style="fill:#363E44;" d="M626.177,1502.374c-1.572,0-3.126-0.456-4.442-1.38c-3.531-2.477-3.305-6.73-3.268-7.207
						c0.095-1.214,1.188-2.121,2.371-2.026c1.214,0.095,2.121,1.156,2.026,2.371c-0.006,0.081-0.125,2.179,1.404,3.253
						c1.249,0.876,3.034,0.76,4.345-0.284c0.954-0.762,2.34-0.605,3.098,0.347c0.76,0.951,0.605,2.338-0.347,3.098
						C629.846,1501.759,628.001,1502.374,626.177,1502.374z"/>
					<path style="fill:#E2A18D;" d="M639.798,1478.507c0.167,1.373,0.608,3.354,1.925,5.251c1.588,2.289,3.275,2.761,3.525,4.343
						c0.167,1.061-0.297,2.706-3.44,5.121L639.798,1478.507z"/>
					<path style="fill:#363E44;" d="M641.809,1495.427c-0.663,0-1.316-0.296-1.75-0.861c-0.743-0.966-0.56-2.35,0.405-3.092
						c2.257-1.733,2.646-2.773,2.607-3.027c-0.019-0.123-0.495-0.557-0.81-0.843c-0.637-0.58-1.507-1.376-2.349-2.588
						c-1.244-1.79-2.02-3.892-2.304-6.244c-0.144-1.209,0.717-2.308,1.925-2.453c1.212-0.149,2.308,0.716,2.455,1.924
						c0.196,1.632,0.717,3.065,1.546,4.259c0.558,0.804,1.139,1.334,1.701,1.846c0.904,0.826,1.931,1.762,2.19,3.412
						c0.375,2.355-1.025,4.715-4.274,7.212C642.75,1495.279,642.276,1495.427,641.809,1495.427z"/>
					<g>
						<path style="fill:#363E44;" d="M579.232,1498.362c-6.167,0-12.458-3.339-16.596-9.086c-3.094-4.299-4.584-9.379-4.196-14.306
							c0.398-5.064,2.719-9.363,6.535-12.103c5.981-4.301,14.482-3.74,21.15,1.383c0.965,0.742,1.148,2.126,0.405,3.092
							c-0.741,0.966-2.123,1.15-3.092,0.405c-5.116-3.932-11.5-4.456-15.892-1.3c-2.743,1.971-4.416,5.12-4.711,8.869
							c-0.306,3.886,0.896,7.929,3.38,11.383c4.041,5.612,10.542,8.358,16.148,6.844c1.167-0.315,2.386,0.377,2.704,1.554
							c0.316,1.176-0.379,2.386-1.555,2.703C582.113,1498.178,580.675,1498.362,579.232,1498.362z"/>
						<path style="fill:#363E44;" d="M571.66,1487.25c-0.558,0-1.115-0.21-1.546-0.632c-0.519-0.51-1.003-1.074-1.438-1.676
							c-1.725-2.396-2.552-5.233-2.336-7.991c0.228-2.897,1.568-5.365,3.77-6.946c1.12-0.805,2.392-1.328,3.781-1.551
							c1.201-0.195,2.334,0.624,2.528,1.826c0.194,1.203-0.624,2.334-1.826,2.528c-0.708,0.114-1.35,0.376-1.91,0.778
							c-1.13,0.812-1.822,2.13-1.946,3.711c-0.136,1.72,0.403,3.519,1.516,5.066c0.289,0.397,0.609,0.773,0.954,1.11
							c0.868,0.854,0.881,2.249,0.026,3.118C572.801,1487.029,572.23,1487.25,571.66,1487.25z"/>
					</g>
					<path style="fill:#363E44;" d="M632.406,1424.572c-11.78-9.104-22.684-10.397-27.888-11.668
						c5.123-0.105,11.182,0.145,17.909,1.164c2.052,0.311,4.027,0.672,5.922,1.072c-1.847-1.576-3.863-3.076-6.071-4.456
						c-6.282-3.928-13.538-7.457-21.322-8.107c-13.656-1.14-26.732,8.121-31.063,10.624c2.451-2.54,5.543-5.315,9.364-7.956
						c2.054-1.419,4.095-2.643,6.091-3.706c-7.582-0.033-14.492,0.854-20.223,4.321c-2.552,1.544-4.335,3.411-6.559,6.109
						c-2.481,3.01-4.233,6.945-5.52,9.566c0.184-1.142,0.494-2.801,1.018-4.765c0.216-0.807,0.623-2.325,1.208-4.074
						c-2.319,1.996-4.437,4.259-6.284,6.826c-13.504,18.77-8.027,36.656,1.712,46.707c22.963-4.45,44.562-13.126,65.623-17.375
						c-4.99-1.15-8.665-3.206-10.689-4.528c12.177,2.036,19.196,2.45,23.146,2.595c6.195,0.227,11.326,0.292,18.424-0.083
						C646.35,1443.35,640.96,1431.182,632.406,1424.572z"/>
				</g>
			</g>
		</g>
		<g>
			<path style="fill:#D87355;" d="M402.591,1399.463c0-5.523,1.71-10.103,5.131-13.736c3.419-3.633,7.766-5.45,13.035-5.45
				c5.269,0,9.614,1.816,13.035,5.45c3.419,3.633,5.131,8.34,5.131,14.119v4.525c0,5.44-1.688,9.975-5.066,13.609
				s-7.704,5.451-12.973,5.451c-5.226,0-9.584-1.785-13.067-5.355s-5.226-8.286-5.226-14.15V1399.463z M408.772,1404.344
				c0,3.961,1.094,7.219,3.284,9.773c2.188,2.555,5.131,3.832,8.828,3.832c3.611,0,6.492-1.288,8.638-3.864
				c2.145-2.575,3.219-5.908,3.219-9.996v-4.663c0-3.96-1.107-7.227-3.316-9.803c-2.209-2.575-5.099-3.864-8.669-3.864
				c-3.527,0-6.406,1.278-8.636,3.833c-2.233,2.555-3.348,5.96-3.348,10.218V1404.344z M423.306,1466.711l-4.78-3.06l45.319-72.538
				l4.782,3.06L423.306,1466.711z M449.314,1451.668c0-5.524,1.71-10.093,5.131-13.705c3.419-3.611,7.745-5.418,12.97-5.418
				c5.228,0,9.571,1.796,13.035,5.386c3.462,3.591,5.196,8.319,5.196,14.183v4.526c0,5.525-1.712,10.093-5.131,13.705
				c-3.421,3.612-7.745,5.417-12.973,5.417c-5.226,0-9.571-1.795-13.035-5.386c-3.464-3.59-5.193-8.276-5.193-14.055V1451.668z
				 M455.433,1456.613c0,4.003,1.092,7.282,3.281,9.837c2.188,2.554,5.131,3.83,8.828,3.83c3.654,0,6.554-1.288,8.701-3.863
				c2.147-2.575,3.219-5.951,3.219-10.124v-4.661c0-4.088-1.094-7.377-3.281-9.868c-2.19-2.49-5.112-3.737-8.766-3.737
				c-3.57,0-6.459,1.257-8.669,3.769c-2.209,2.512-3.314,5.876-3.314,10.091V1456.613z"/>
		</g>
	</g>
</g>
</svg>
